<mxfile host="65bd71144e">
    <diagram id="V-kYW9GV2uXmBUqnUB78" name="PÃ¡gina-1">
        <mxGraphModel dx="3487" dy="-1545" grid="0" gridSize="10" guides="0" tooltips="1" connect="1" arrows="1" fold="1" page="0" pageScale="1" pageWidth="827" pageHeight="1169" math="0" shadow="0">
            <root>
                <mxCell id="0"/>
                <mxCell id="1" parent="0"/>
                <mxCell id="115" style="edgeStyle=orthogonalEdgeStyle;html=1;strokeColor=#007FFF;strokeWidth=3;fontSize=21;" edge="1" parent="1" source="99" target="114">
                    <mxGeometry relative="1" as="geometry"/>
                </mxCell>
                <mxCell id="99" value="" style="shape=image;verticalLabelPosition=bottom;labelBackgroundColor=default;verticalAlign=top;aspect=fixed;imageAspect=0;image=data:image/png,iVBORw0KGgoAAAANSUhEUgAAAfsAAABVCAYAAABO6k34AAAAAXNSR0IArs4c6QAAAARnQU1BAACxjwv8YQUAAAAJcEhZcwAADsMAAA7DAcdvqGQAAABfaVRYdFNuaXBNZXRhZGF0YQAAAAAAeyJjbGlwUG9pbnRzIjpbeyJ4IjowLCJ5IjowfSx7IngiOjUwNywieSI6MH0seyJ4Ijo1MDcsInkiOjg1fSx7IngiOjAsInkiOjg1fV19/kq45QAAGAJJREFUeF7tnWtsVVXax//zfvFDoVzloiDlIrWV8gKKIAgOUWYgaolT1IyMYjNiMkYnqGRCvH0QNc0EZoxOnEScHHFGJ450DFUDioaXcpNRwaFIBW2pU5RSuZRCI36ad932Oft2ztnndO/2nO3/l+y2e3edvfZZe63nWc9l7f2T8vLy/164cAGEEEIIiSf/Y34TQgghJKZQ2RNCCCExh8qeEEIIiTlU9oQQQkjMobInhBBCYg6VPSGEEBJzqOwJIYSQmENlTwghhMQcKntCCCEk5lDZE0IIITGHyp4QQgiJOVT2hBBCSMyhsieEEEJiDpU9IYQQEnOo7AkhhJCYQ2VPCCGExBwqe0IIISTmUNkTQgghMYfKnhBCCIk5VPaEEEJIzKGyJ4QQQmIOlT0hhBASc35SXl7+3wsXLpjdPuaSp3Dlr2diAFrQvOYBdJvDpFAYi3UPX4cJaMemP+xE64Kb8ND0UuDrnbi1vt2UCZd7an6JJePMjqB169/xSJPZiYqq6/DWwrHme53F4/fehKvE18y77oWv4cHVczDY7EL07E/q/hebt5pdByuw+J+P4upBZlfQtedZvPD4erNHomD6S0dx80SzI2irH4+/vmh27OR0L7MQdj/LSmmyDk03Pn39XTzdYXbjwqgr8bc7p6LE7KL7AP748udoNLsp+l6eFRK07H0oXbYZsx58CheZ/d4w6ul/44kPt2K62S9mGk+eVb97TuvfUfBK/d9x6x/E9voB9JhjfUs3jp3Rv898pw7kjVQga26QWzZF/xXeUeX09qNU9FKpfngUd91v9iNm/32mvet2o8sc82XrMrxg3Zv6r8zBMAivn6WnG0+/bMbT1gJUZlJJP/xLrKsy+/nS8Tl+Jb+j2DZ9bY4FoC/kWSHRv8r+2yfx+ZrF2EurvkA5izPyxnSfQas+EE++O6MmFn0+6Bf+FJOERd+15x/Ybw4VCtLyfUIo3+T2z9cwyvyP5El/9bP+wCjyt2xbr5V6r/mRyLM0RK/sh8/G0tqlmD3c7JPixQirEyfjPTVrPS2/31kc6yN3Z9e3hWTJ1+Euodxvnuj0Nqz5s5ibPL3ClCFh0Nf9rK+Yv+AmvHXnVGD/u9qrYLamydfhHlOmIEgjzyb/rBa1t83GMLMfF6KN2ZcvQu2c0cD5ZjS8+RFOmcOpWL2h62N89sKT+MHsau5F2RM1wLuLcfzijZh2jRWRccb3L/q5+N/kQ+Lz/8FoUX6kOX7+X7/H5+9tM3vaNV8x1FWPuY4eUUdbh+ua3PheYzqkwLwDZWbPixSkC4U1Z8qd3Y31v1gGx5i/fyueqJmUjCWqGCPewJo3xzpiiL6xRvPZJC3ic/etNjtRYcXDLHRc7BWzp3GXyRBDNHG4Exnime74fo8QLr/alhq4Uug8NP2suI4DGGOPXaaN6YWEifN2pYsDWwQq5+5L7pixCQWc9PaNVOxfl5l06FnsHPGoilWr/317u+knqXPqWLbVPzMjQ1Qrrk0GhD39TP2/8qDo2+1YaPsO9pwEd+zcTap/63YY7LhujXcMZGszG0HvlUSNqxH5x+xzwYrvW/jFld2xat8xZ1DnG5QhZp9tbJr4/xlxHbtKHfU6xp25Jqno7WPRjnvcuknlMASs04Y695Bejm9poN5SgYE4jl2JLThiDhc7kVn2w2Yt1Yr+m11I2BW9JOm+X4zmLP6UkTdtxrThW1TZvWt+j7auiahwx9MHz8Q0MzFQ5d5twYBrfoeyGeb/QXBfk1TuZl9tgRW9ZDX+aiyi9Xtkh3RZSUlBuhpb5f8HTcH0hepAkunTpDD7CgftAmjiHXhi9RR8VZc6d1nNv7HY9lmVI6AEklXXG2iTn3upzpSIAClIpKCQAik5k/8aVTU2YWXKjLTN9v8oGuGqO/Nx70nBZAa1Vd/rB0SjCYvCXqdiLJY8fBOuaLHq3YnW0ql4yFOur5CKyLjGjWIuq7G5y+35HVK5GAVn9Z31e4CrV/vEtl19Q8aXB1/7qLNc5QO4rvNZ1W8Gi78fFEPmHdk/hFCddL202uswRSrelk+zKHo5eTgqFH2nrV+bfuZ29w+agxUfLsbJNNfljp2n8hz05lbA8rNyqFv1esZALm1WoEiFJRW9VHrWWLn1yDjHOLGsZzkZtsps+lr39cdzjbfkMjbHibJ3luGL1029W9tRIsadVW5+RZlQyN34otlf0UvceTmO7yk2z+Q+S52hc/IjbEzsEqp+NObGyCsdibKXbpDqSjEv2p1A4v1ezouk0n3tZbOzDV1HRPcYPNSTPHdCWuf7zM6+ejEpEBOFinvNgcKlY/tBIeQsYWuhha43luu0UDoe32wT1JI6LBSWVteeP9ksDzHxkIlFExcbgTgPjyXqUV+fZks8Jkrkgph9z7IyjO2WRzseSe6nythn443bduBTsTth1pWYb44FYf6CqTqj1j577/gcL+0XJxs31SPspDBJ1duOJpnEM6Q0pzrDIzUR9Fdw1kRQKNQbxYRPWMv2hL2Ox/+ET86KCcKN7hi6nFDaLM4XPxV9QwyVS1L9avCgTuy0zjVI9JP6lPU+eITocPdfpazhts+yeIHuvx1XD5J90W79m34mlPtCl1Jtq898XTkhvWA2r4M1foZfLvdybbMwWI61fuPI2tYtN+UCIizjG4XV68nQb9pp2xdKfXqpsm7tZV6pFxNZ0RZXzc1lIpvr2JTeA5vFLwaTtI1GDpceHjGmJorf3W1o9PUe5EumOqPiCLYkGtB8fiAqbqnFonJzuIgJWdkPw+zbajH30nNofjuBLYfN4V5w/si2ABZ1C05bil6xDd+fFr+GXhZKRn2kbP0/fCUE0eDKn6YEkRK63fhqe0pgKc4exH6H+7AFMqFUCWpJus992WkTiDvwTG0NamrSbLXPiBI5MGosrhBjrvVIhmxfU8abmNSNxhYhUUqH2NyH2bAEijfJprG5TVgKpRhysTmg8GY7K8siSjd+GFjJe50t5oDFeuw/JNps0Ahhd9g42yksETt6UmFXek6LvRsnvzR/5oj2OnWiw9EXBb6K3OWd6i0n253hLpMtrzwAubZZKGzAKr9xZG2PbDDlgqEtYzEhdVu3dqrGqfHizZ3JYyKb69j0jDsxqRfWdjqXfSj0R52KU/jozQR2fQOMnlOLpbOKO4ofrrIvn4mKtEFv4s96bP5AWkQpV74Spi2bc44LjrpkhPhZqlyWKbew2Gxx3NC5eIhy2wVZPpQ+sW8QxuRqcp0Rwsj86SbaGX/fkj55bwRGuUI/fYpncpEiOfnsJwq2zQIwYaj/RNZLhjGX0+RZE+rYjCkDK2disvm7GAlX2R/egkRCzoS066PYZ0J9hrKInHHTrK5UHzq+7RQ/pXvV7hZObTr+GbIbX2W0uq3pXAk3IznuqwU0PpZ1b1EeIKBsWu/yO7yWdaEQQZuF7MZXGfp5KGsHoS4ty2VsmmcHlJZhfiwmCJanGjokXeTJepHE7I+8n0DDoXNiJlSN2p/1x1zoXgwVoyVbCOCiqkrf7PsfTvrnBeSDVsDZLAqdqKdc+coVH9D1adyWyYmBw12fjpDd+B3dOCF+TZicIU7Y0Y4vhAzzljEu+a+/9s8g9sW4F8eN8yzjCeQCLRZMeMereFdgeqVos6xJdHlg6sTEqzI+BGr/Z05PVJJ0YaQgbG1XE428Y/mS/mizkN34+kEvY1GVKflMxaxLcUWF24MlPjcO6GlpDx6iCnVsAq+ocJ7ftflgZEdheuImY1FtNSoGhBeS7m8iUfaSU3s3IrH7OHDp3D5fs1i6TC7Ba0G7bemdVuCVQpjofbVkL7mcz8kP38mp7ESM/fkCfaA3GAV89W2ZrSWVaCQzl2sm+STm+bECi38zB4PP7sZWa2KwdRl2CqPKnaEfLe3YpBLjrsPfFtgH7VisS2a8d+PpvUIIiDL2DNr5C+bhqtJufLorQ7zfh8ZtB4SwG4sl9oz6UVfiPpW0dCAn4VS4mPDOxDscWeSjnn5AJ8e9GcVSSlHnn2XS4CTc7H7q48LXcJe1zv7Ff+CTs6JP/8ae8FaHu+RyuDzCTxqTf3Lt7b142mR/tFnINB3QiXELXVn1Vfaxo8dcyfR5jjL31OhHwX6QUyw73LEpEwnlU+xktrxTHujrc07Q9UNuSqZPLaz19+rZMHMxWi2924iPTprjRU70z8ZXaxbH4NjbqUbLpGhT6+P1OvsS13p5/dmO5Fp733OlWROv1tpb/jFVRq/Nl0v2kpn8Bs95c1pn78K97l1lTtszmSV6LbTOcvau4/Vdj5xm/bxn/bPEby1/mKh1vHbrQGbQutb8Zi3jXutrJ3tZdwazXmePvn8eeJjr7LP2HdNvkOn+mjJyLb7oL7p/wPQzsybd0Zesvmh2JZ7+4y3jfqa/rkcuz7Nfr229vD15UOFeH69XKui28bvONGRtM289KfzGpkGdt2/W2XvWovuss9f92zbO3c+P8KzDt+Eum3VsmjXvcH0uHZ7z+awwUGQax8Hq9LSDjXTr8TMhV5PNHeR6NkwM6N8X4YSAW/kXL5mFtlL2wyNW2CQccnlQCyke+lDZExI2kbnxSY5Y8fcPqMwJIYSEC5V9QVCHu+TyuJY3aAkSQggJHSr7/kS6e9Va+ICxSFJUpB6D25cJkyRUkmNUbI48AEKKi6KP2RNCCCEkM7TsCSGEkJhDZU8IIYTEHCp7QgghJOZQ2RNCCCExh8qeEEIIiTnMxncg3wi3EjOST17swb7n78Yz281usVG7FvU3j1d/Hn2nBqsS6k8Xtu/cvQ/P5foinJBZvq4e1bbnmKa/7mKmgPuZrc8o2hpyfplLVKT6xlE01KyC/1XJt9BVQ32DSK5dvgmtGhVndyHxfjG/A4382KCyT4cSeiOKV9lf/xhe/e0MdGZRlkqADu1/Je8h4PX3LVqRjPj4OdxdF1JrFWw/MxOS04Wj7C200s+k8CVG6Yet8H3e9UFIMUA3fkyZd205SoSlvimjolyOKmEpHW0sMEXfL3jfS/7q6pze7E/6iA0N+9CDERhzvTngywZs+rgHGDpGTFvCY/KMCgw8fwxfUtGTIiN6Za9eF7gUs4eb/RwYNmspamsXoT/eiF/sTLjY/62CDq4fI0QmUda1ZQXa3kW+HkvwWEaFQvqPEgzxfz2ik9Ihad6i6Ea+v7wWi8rNri+TMeFS4Nx/vszrbWiUZ6Q/iVbZly9C7S3embB8U92sB5/CReo1tpsxy2xXut4ff2rvARzHaMwNNFlwW2ZrxREX0jWcrUxg3PW96lIM0g0qjq8TNbjqTWcxSvek9zzFQoD2z9pmuaHbK7W523Xe6lfFcXkd5l5YZROP2aw9cU0yRu3j7t1Rt0q51vV55Gd1LLhk5srUucRmrzdYneGh2yBDW8v+l8R1TWLLz3uhz52+ve246yzA/m17f3nrYXPMh2GzpqoyB/Y6Vb18dfasZfcClzyFK23yrGyGKWDITZ4REi6RKXs1i50zGvhmFxJ+7wUePBPTzLvk964R27stGHDN71wD5Ai2JBrQfH4gKm7JMOv2tcyaUGUTdEoQmRiwVaahbTyq8xE+pj4Zu7XO9dzHwIzf1mNtrSljUVYt6i3H4edNve8cVcrCU06ISOlSlxZL+bVRqIUICdD+ObVZVrSyUbkGVn3P7wOkEnYoN4m8xytRftiqtwFHS2dgpVWutkop8KMH08d1d9Tdnfqs2O+xfQe5eeP3WeoMkQ0H5RWNR5W7DdX36sG+htT3Wr5uBfBK6rqtvpifwg+CvE8m7m/q1Pe8gBR+0iBpRkNii5A46RiGyy8bKORZq3+ZCTWY9etKnPyLlmef/asHI2/aiJGXmP8rAsozQiIgEmUvX/5fXTkQx3cnMmasnhCKvk3IaMW+erR1ASMrxAzZwSl89GYCu74BRs+pxdJZw8xxC2E5zPezzDZgVXJ/OZbMLFFC2p7steERKbxLMKM6FyGcqs8u5HfUrce+biF257stOJlIZEu+SjQphTFipFvAbkBTm/zdg8N7iimCHqT9c22zzMxbfYNQZKJd7UmF25/BehmjLbvBo0hkRn+qXtPOJpa7fIpS9WgKOQkwU52hYvrT+CnOPqy+V/dhNNqS/jY84koCTGxS7V9SPj/86xIk75OtX+h7nuuYc7H9GDrNn5nYcSJzKcsgOXeowd8gsTP8cowZcA7N+9LJsx60/WUpTnyr9354bwtOCNkyvMrprcwuzwiJhpCVvVyWUou5l4pB8XYCWzK4xIAWnLYUvWIbvj8tfg29DBfpAw6OvJ9Aw6FzGFhZjdqf2aJe189HeWlmy8yy3jpPuJVoHkLY1NfzXas5YLEDjYeFsnHHCLvPwFlSKEFh4XitQSmMpfUTRla29hL0HG7MmHinkvh6q+iCtH+ubZaReZhfXuLTruJsew4LkeuO5fbgjKugaudIVx/0ZZ0mEa2sStx1i2D3X7b/MTnmIsHcp7YmcYV2TJ29mvi04kyQSWLrGXEnxuMGH8+F3SDZ6HLL+5E1Ma/rELqMote04HthvAwYPtHsO0krzwiJiHCVfflMVAwwf0fJpVNTMa8JQ4R49wpXLxnK5KRsNN6Jg0W2LOEoMXHa+io0pZlQSKwY9AqsF5OLTMuXAhC4/UNus9PH0ioyr9ck3uhJjs2Vrya3R/Gh+/57claczzQIlwkYIp8jIMNYode5A8/UislT4xCslOdMlw+x/RncLcbBhxfrHItkuGL4bEy9VP8ZDJ2Yd/xAFus/X+zyjJCICFfZH96CREK6qHRMKkwXlTUTVy63hG2Nq5q9B8zMTYePlZg/nTjWa8s8X7TXQMXL7cLNhRWDXi/UvX9yVw6E0f4ht1n6SYWX1u+EVWxXlMXI9kYclpauceUrF77bojbPLShx5FXIvBXz/9DR1rcK79jqS2698nKYpL8pTZnPZSY3VQd1ncnJ78mPsFHIKWlZS1d6NsvaSszLlLyXK2nlGSEREUnMPj8X1b0YKhTG+SPb8IM5orFCA2Jm7edyM/E7d8zSgYpr+iW+BXV32nAJ1hTp3JbBCS8bX4cnssViPRZhPgRp/1DbzLj+HW5rTT5hCd0GWa4/iVZgJRf3amaTO0mLPN3ETFi6jUdNm5hnJ7jCKrptnAl74WLuZZIw3PVpCBI6EmTrD6f2bkRi93FhWc9F7W2zhaTxI0tiXjouWYDhg4ETzS+bAxZZ5BkhERGJspcEG0gpSpfVYCRa0P7eNnNEIte+VqNCJsakzQGwYpbVLkt2OdYms591mZKZKxyKdPk6uZTKx92ZEUuwVjuyyOetXoEZpb0RpsWajR+k/cNtsx11H4q7Nh7V9ux2oRBXqCTMTTlMHATJxL5qTyb/vNVrXRMvo8B8kgCjRCstSYaJmZrQiv+vq8J4n4cp6WQ1e9/S1nF+LnUz6UlOJuW57I//1WyQD7+JaBVCaEhv5NvNODegAtV+a+BVaDJTYp4fCzCyZiYGdH2M4468pCDyjJBoiP5xuT6Pl5Tr7KddY7cCBGJgfPbCkw6rXmbLVleex66MS2IMcmmX/ZneQvS5H6cpY9UrhUJI4n4WvOXqNLsO3GWz1mcEIII/ilY/BjSc56Src2V7DK75vqE8kjZA+2cvI3MO9Fp2L9nLup+jr+83grWnz72Xqze8eQ9exWYvF6jOXPqZJFnep01t6P6T7rq9/V+2V9MUZz+xzuGHs32d7a/qPLFE3F8Euqfue5UTAfut/r6dGdsshVTEcwFhbduVsHS3zx3UjIYM2fpynX2F29nTWo+9rzmt+pzkGSEh0y/PxtfKvgPNax6ADOuR8OlzZU9IXxGJsvfDfwLgRin7oV5jhZBCIjI3PulfdOJZFgKuVybkx0gUiXmE9BdU9jFFxWhLZ2BJxuS7gOuVCSkgllfrkEbmREz9IK3eJMyqvCO63ElMoLKPK4lV6nGo42/Wa5v9H0kr1ys/h32YkXm9MiEFgAxN6XX6Mq8lnWte5gjIctUqUfE5x1MdCfnxwvfZE0IIITGHlj0hhBASc6jsCSGEkJhDZU8IIYTEHCp7QgghJOZQ2RNCCCExh8qeEEIIiTlU9oQQQkjMobInhBBCYg6VPSGEEBJzqOwJIYSQmENlTwghhMQcKntCCCEk5lDZE0IIITGHyp4QQgiJOVT2hBBCSMyhsieEEEJiDpU9IYQQEnOo7AkhhJCYQ2VPCCGExBwqe0IIISTmUNkTQgghsQb4fz5FCA2Xx7A0AAAAAElFTkSuQmCC;imageBorder=#007FFF;strokeWidth=4;" vertex="1" parent="1">
                    <mxGeometry x="-949" y="3640" width="507" height="85" as="geometry"/>
                </mxCell>
                <mxCell id="103" value="" style="edgeStyle=orthogonalEdgeStyle;html=1;strokeColor=#33FF33;strokeWidth=3;" edge="1" parent="1" source="101" target="102">
                    <mxGeometry relative="1" as="geometry"/>
                </mxCell>
                <mxCell id="101" value="" style="shape=image;verticalLabelPosition=bottom;labelBackgroundColor=default;verticalAlign=top;aspect=fixed;imageAspect=0;image=data:image/png,iVBORw0KGgoAAAANSUhEUgAAAp8AAAA0CAYAAADMrFMMAAAAAXNSR0IArs4c6QAAAARnQU1BAACxjwv8YQUAAAAJcEhZcwAADsMAAA7DAcdvqGQAAABfaVRYdFNuaXBNZXRhZGF0YQAAAAAAeyJjbGlwUG9pbnRzIjpbeyJ4IjowLCJ5IjowfSx7IngiOjY3MSwieSI6MH0seyJ4Ijo2NzEsInkiOjUyfSx7IngiOjAsInkiOjUyfV19iLLN+wAAFIRJREFUeF7tnQ9sVVWex7+7s8mOJbaFhdpxaVqh44xaQALzB/njuNhEUqMRwuCUUTSRIowmq+6OjeJmMoMGZ0bdrIIKJIuOgkiqcWPDJIVlrGAzE7GCiI5SaAMzUwoDpQbc3exk9/zOOffdc++7r31/7rtt4ftJbt67951377nn3HPP9/5+v3PuX1VXV/8fcuCSSy7Rn19++aX+JIQQQgghJFv+2n4SQgghhBBSdCg+CSGEEEJIYlB8EkIIIYSQxKD4JIQQQgghiUHxSQghhBBCEoPikxBCCCGEJAbFJyGEEEIISQyKT0IIIYQQkhgUn4QQQgghJDEoPgkhhBBCSGJQfBJCCCGEkMTI+93uhBBCCCGE5Aotn4QQQgghJDFytnwSQgghhBCSL7R8EkIIIYSQxKD4JIQQQgghiUHxSQghhBBCEqOwmM8JD2LTwmkoQQ9aX/wXvGo3X8ws/8lJPPrd8+pbCd77xQQ07jLbyShhVRseW1RrVxRd2/Czpma7QgbFK7uz72HjwqXotZvJMFD/Ku5vvg79LVfgV+vttqxYjgVvPIKZZXYVA3h/7TTsaLOrReLJ9T1YMkm+lWPbTWV4WG8tnKUNL6Fhol0Rju9AY+trdmVkM++GBjwwvRTnOlvxw90DdmuYUqy+pwEzSu3qwAE8s+ljtNvVkUso3+o627elFWuSvmlUXoNXGqfiRNtWPPSR3eYyZQ7erK+yK8IxvPX0Hmy2ayMae25jRug1cRFbPm/HEytewqbZs+x6DKw4q4QnlOisRs1NFJ7xsBZ37DqK+9cst+tFZn09fjb/CrU8gffP2m0XOdM3HMVjb7yKSrtOLmQ2YsdCuf7V0nLYbis+D6+Se2Y1th3px5Jfn8WTdnshGOF5Hh++sQyNL9pllAjP7KjCUw824Jtdrbjt6a16eaarBg/ccw3m2RQjlwGs2WTyfFvbMbsteeZdVaPF2VuDCE8R/1753jZahOcooDDxefJp3KMbNa2ewpPT+oEjpQWJTt3RK7GVtoyQzr9yzf5Q3tow3f5G8iO6zkdhuXrCPQmrp1hZ08pMlv1YUG/TjFTEKil5Dbdp75wuYqH/cMt4JUv+B1Xz7Ya8uR3XiMXz+Dv4+UmzZbTRfso8/Z44FWX1FMvhHFwWsoq2734X+zAVTTekTIokI1W4VSzLXccirYJ3XSkWz2PYmdHqPMLpHcAJ+TwzMCIt4Yz5jI2/oOrv7NdCEbeltr45y7C7McUddxTLZwHvr3Xztg91G9baNCRvAnW+Dd2oxc0U9kMgLmH3WpSl+C7i2Cirw3RHKE+/1gn3uKg5j4qYiuJ8f4/9doExZSpmlEYJIyU0ugYwZlwqboJkYko1Jqny+vSTQcTlwBkcsV9JvOQX85mK9bR8sR/rtjyNvXZV0C4P7MC6/uvxozqVUmJtfnd56n/d7cvwyCfqi97X1/HZGyvxh2878TkR+0w7blqs6Sz8uPFeXHs2eCzh/MEXcM/eDsye/bzJTwa8dLnzF2zZdhzX/bkSNav+1m7LHbGC3Tw+u5g5nXayXVH0dzyBZ1dvtGvGSrl8Vh/env86Kt04LicmT+8D27Cxb4FKq56WJcZxe5WOFytXv3fbmDGzLxGeWXTuNt5M/m84rPJQj067Zn6vw2G1r97Fzjk4+TLHy/z07p+rjVE7Fcy3EC4PYagy83H2W+SYz6g6987fK3+PcLlE5j+t/DPF7Q0S35e2jxBuXGcWcbKm3EPXgUbCKpagJvCfLOIO9TErsroeh6xzZ1+B69G5brNtJx6DHlMfT7Wljgr1iPGc3S7lMAOn1LaZVx+MvBZSRMYh23K0ax5uvqKuM6+eI2NDhyzjLOopV+afw4F/PoW+N6tx44t2W15IWNUCVGS6n1/1U2yZNwEfhvudqPELg/Y7ps+5sucF7C6/V+9H9yGnF6j9V6vfxe2/Mnbr612LfoAbT2eIBdXuYvixiUPGLYr7fg7QthVvjTdxpoaI+EYvjtCu+ngxm2ZfYYusiV89Gx0vqfNXljnmc8j82/jRM3tw297SQP4yx8s6/2mJdvtLGd86dvB4SZ1GqtmSdjzn3I7PdtP656D3gT145vRUU/Y9wfM4EopHHfKYObLsqRbcUnMOH/zbnXj8HbsxAfKzfKbc7cvQetxui6Lsetxd/g4a29XT58TrsaleROYL+PALoGbS7TaRUIJrFxqxamJzdqD70mn4UYOfRkTjFnUD6FOi1YvfaT1ejYYVz+PHE2wij4mq4WtBa9Oq45fU3YsnrgL27l3pH0MllRuFtz9Z8hOeSWPiIHVH4ll81r6n7oOP4LE0K6RY0B5B7aEnrGVoG7rLrsNyN934BVhcscPEeE1egPtXijA0MY8110q65Zh+tWoUZw+ic4iORTrKx2xn5lmj3u6SPITdoaWY2XwUc/qi89W7epq/Xa1L5+3tT5Y0wTV5iTqu5NumUedSrsrjjlX295zKbKQwgFOf268KEQ/mYSKY/2A8rDrPlcB2L41a3u6Ssg6Vv4gOdV3MhFMe858DFluXb9tSPJv6v1oPW+NdAZNFnGznhxI/WIu6VH1YVs1QgkmJlu2emJJ6sqLfHmujapJp+c+KXOrcXI8iMP1zUdet6wIfsp0YjPAU4WqPqZY9Ffel5b/3nYMqL9/X1u3KNQtQ3vE6dvyxT903K/A1nULEXajOpT3Ite7mS9flEvV/p42o8+y3PxeHOOspLkQIvoQtK2RZoIW43PfNuizhviLc70jfpPqUxgcx26bIut+pvhM39L+AdQfPo0R93zQPSqBKH1OCK6+McVyBpgpTqn2LnYiRNx+0i8R7njyDc/oXhYjFK3ucmMVW7Buowq1KIN5lk3hMqv8BHhh3IJjOjR+1whNK7Php5AcRUkUaLJRD/lGthF5jDT7dYtO2HcOY6Q14aor93aWyCt9UXdqRz4LCU0SyV5Za4JUqQeiVrVpeSYUziMhWaUScennbckA1fvX/Ra5QFkoxo9EIzMA5uGU7diqapOwl/rV6Kl65Wc7DlO8k7f43GOEp5W2PqZad4+Zidd5xOsswRT+xjsE3Zs3VW5KiuG73S4HPfucFeKvnxp6X/SfAsstTDVwTGIX4GlpVI8bEq7FUr9+OhroSLRS1tdTyaqtp3Nd+2xWygjyZOk+bnxzSAqZiXNw3geFBOqoascq4AkCJhe0d6kpVnWL45i/WD1+sNeOgiInxVX7nVQYcTnX+qnEdes63Xki6+u+hVqXpP/Qb/3iRrEX9rFItFF0rSmeTCEjVuS8Odfhd2wbPV05IZ+9YXdbv03VefrkRZrmW2bCixMRisXS5Yl9tmzNZ6tKxHNr8l1sBY2jGr9xzVHRuFyFSitrrfZE6ffF1KHetl5qN2NEU/G9s2PpwRZqgXc3OeabqybHs9a5+Tgm8iOtnCHKtc/2AkzruRnQeUulSQlAxVDvRX5ajcrz66NoXsPB2NkVYBNt+g8NK4Natkoc7te93Qg9Uq76PmWViTXStxap+RfyqB7V6K+S9utwefiArInHWU4BdfwMlv/OkAz/f4onEKONCugVS/57qdzqwt0f1O5eWq3MTsu93Si49id2e4eLSEiVWfetpSbljpoqDylJchrM4ri5qEUueAHpLIgzC8X29H+OHAcveANb8VtaVgA2LMhkVnUpr3PcoHQs9CYFCD85RQtN39Q+yr7jIJf9hEfxRj3aZXzbeE4w+mQYate/2Bxfp8pQyseuyeBbGeTdMVeWijudaRVVeN3Sq35V4DItBPWhpkLKV28mne73f1UrXu/55jC21IrUUE8eqj56egPV4c0shwv8lfCQNRT2u/L7jXb0lKYorPr/4HHudxt53OrNVsftIcBTi3tPyxwn4e3m6vOpqfTNI//9r+Fgsr2Eh+0W/vvH4vIZH1M2nqFbN+f+FOumc9ufvck8hFkAZeOAsvnXLs0L24U92i4dYUkRkjP+63aAJWs+EzqYrgparkEWz/495dmLaihX1/2hh2f2h33EVTFp5qE56vie6cy2zYcCt8+brVD+ohJBTR5XX16FcdfYHQ67RXrGUoUI9IJj1SNTTdNAKthZ1SsgO/TARJ81o06JvhiOUw/mw9RQSbiIEe0+pj7QHE2OtdNuJbxHMvc7D162xvjvCL6t2YvMq1skMFvXKyytsvpTY33kYNTfeh1qkexVMDGgfesOiNfBgNRx1mWs95YISn2eB2n84p45SfMJ9ivGMWeGYS79z/JDjqj+PfimHYjFhrBJOEouoRMlkb8CMESbnTmdwPbi4llGHTANvPCaNU3UeyQDOhER9UcmQ//T4zGN4yBGMPoMPNBoaU+5R8aDtn3SrvJVibMgbGx40ZkSuEzow0I12pwFHDzIbwPEz6kMsvGnW1fx56aFFWLQoWZe7MIoGHA3SoFNPqsOAxCj9ugfdTcCzNxUap2QJuzhTIsrh1LGMnY1n7Rse0sVuCteKNByM2DJTpOrchBkErZnA1yrkxi/hCyGx5cZaWnToQyBdKBawvkrHKeb9kJEnRvQ5rnf9sHIYe1LX9mSMl/hBEW6B/Isb26QIIlbBYDtJG5g3DHUuD3cbtdD2zyPjVGEiJMtK0b/TzbfzMBEhnj3KKyILJQFyradc+Aoal1Sj5j//F4/KfXVbMiI0MyOv35knhS8WTus6NkKlTAxkkaIl4JaXJTJmc2g27z2ghFUVbky5nkux+jtKBIWEU9zElf8UeqBRDKPYBxlFHmVtjYPNLVvxjLauKgFqy8MPBRhdXBij3dMsnQmyawymKtFZswG4X90sd66w24eR2EWFtZyVX/29AiwaikE60uEmaSGWGetWVSJtjiNY/tQnN0oJLQiJLb34Ll13oJL/uxG0Kbz6TFpwazez73rXlr2A9awLenYZGVATOD+7hIVlgRSzzv2YZRMTKvHH0QLUWOjTBvtkQX+fuBOGg2LWkwzcVKJz2lf1vJ81S8ZgpLTMNIaz30lhrY7aFe9grXImRlAGA/muY4lNjLQcDoVYXNWHxFEa4dOAGThQ1AnMY82/xgrmkOs6bqItl/HghwaYmFCpj9EoQEes+Fw6qdp32+uYzajAbTOX2/mejuCo+KzoQf8XMcbj7PoqDqobcu20/7YbioWNRQu4Lw2ZXLOFY93moalh0tDuwGBsoaEQ16Dp6Aqz8hSvzGSkYEtLC15ujjFYe/3rVrD41s+s3OspV/N7aBv0fGyZZvkwoYVvLFZr42Y29WCuiWDoRRxuW4/haCdRyKTtVoDaa9hYsYdGD9KKanN2kJaJEY1uHzoO1H4fDFMWuRJnPYWIM3ypUIrS7xQTK0RFJGqrnAxMUus9B2IYDOSJNm/QjF2yEp7WTZ0zcebfkmGgUW7YmM3q6rRBT15c7EdRk9bHjkzUbwVoAVNrzW1+Of4+LAtGpvi86qd6yoruTm+qJTMAqaTuzsAIw6UNEvTe4wd650QH/qBu2jIKP220/Aind7UEvNfiZjemzA5S6e94PRSHFQ+pQUNpo1nX4o5UPkxcX/ms+wJppm8Qt6/rXs0FL4ausEFBxSmzuZg4znwb861bscx8jQEr0lzrpxakUv6Dzf1py8oVLHYkdNA9aPcfnvVAidcFG9InODfCN2iJzRv9gFKLug1KQEWIZD04Ki1f+TEc7US3h/Ak8d6AvWwslZ/3+fGoXp2vdPen9i+hFl07rLXbE9l++xDr983jB7R128U8RPjXRtoUTjkQZz2NXIrR78SNiS+8a7bvipbJ0Y24Oiue4aBIkql/8nJb23jD1OCXTJhjjplclRokE3yNZi7EmX+DLqdMbzTKgfbdB3BEYkfd2MvKa9CkX4d6oEhW1So8FX57lRXTWcX6RjIX875hSjPePmxo8hKfevoJO32Fnh9NpkWy6/m+rrJmnjcdhlr0/Gt2HlCLBIKvOwg9NUbq2GX7sa6Atyu92ipTa5jpNrx9xvq6zaIhrjo75YoXb2WnN0qLDY0N4x400/a4cV4zcDAw4nWanXLFT2OmugnP75g9nU1iOQoeN/fXbWZXZjJNjvndzl/opPenbfJ4F4+3H7XfYybN+ikWNCn/iLhPRwCklVVzBfaE3e6CTI8k0/EE4vbuA7ZHuExVWolhFNdxKq0jsHIrM2NFr5lcG20J11M8heop476GYpjayfPAYiff+R/TWk3hDkC0UyqF2pzbLpfLdFALd6SJz7R0Mp9o+NrQDyv2WDqe2LmWXFEdaz2NXIrR7xSKfvORiMDej7Gzx0yRJHN+vtXjT+lj5oUUy9geI5K8eMnvnMEzebqtN7eofYWmHvIWfzoje8xUOvv6T5lCyEWmUPL+r+fwNHnX6ymBFW/+PUtq/gONXGQwk8qbE3spovhEW9QAp7hQx3wbaPKOF8sx3T6sQmxxiZHfJPNxMsFM4CvzqLlic/QRzyTzZLSxDL9suQVXDHyAf737cdWUCSF5E9sk8xcwer7NsdgZmGi92JjJ4yfJ1EMhV7sfl1mkuT7jQk/47ky+TyzD04ddGAOORgRfwbE/26/komHZU6rRqufwDzZTeBJCEqD3GD4dcEedJ4Ad0BRlNTxyuliWvjhJZqDRaGRu83zVhwFH25Ptwyg+Y+RwXwnUoyG2zLcbyIXL3b/UQdq31BzFfwzDHGmEXIg8ueiUkgnl2Eer5yCYidbT3t4jFtEY538M0DuAE+rDj+W02DjHYk+3VDjiwt+a8VWaFyW2D/vHb/WpPmwR/unf7faEoNs9Zpb/5CQe/e559a0E7/1iAhp3me2EEEKieXJ9D5bo173wvpk1ae88L7br27re7ZpHoe8WJxcnwy8+CSGEEELIRQPd7oQQQgghJDEoPgkhhBBCSGJQfBJCCCGEkMSg+CSEEEIIIYlB8UkIIYQQQhKD4pMQQgghhCQGxSchhBBCCEkMik9CCCGEEJIYFJ+EEEIIISQxKD4JIYQQQkhiUHwSQgghhJDEoPgkhBBCCCGJQfFJCCGEEEISg+KTEEIIIYQkBsUnIYQQQghJDIpPQgghhBCSEMD/A6YfUHbsrdgyAAAAAElFTkSuQmCC;imageBorder=#33FF33;strokeWidth=3;" vertex="1" parent="1">
                    <mxGeometry x="-1370" y="2740" width="671" height="52" as="geometry"/>
                </mxCell>
                <mxCell id="109" style="edgeStyle=orthogonalEdgeStyle;html=1;strokeColor=#33FF33;strokeWidth=3;fontSize=21;" edge="1" parent="1" source="102" target="108">
                    <mxGeometry relative="1" as="geometry"/>
                </mxCell>
                <mxCell id="102" value="" style="shape=image;verticalLabelPosition=bottom;labelBackgroundColor=default;verticalAlign=top;aspect=fixed;imageAspect=0;image=data:image/png,iVBORw0KGgoAAAANSUhEUgAAAfoAAAC6CAYAAABGOo+RAAAAAXNSR0IArs4c6QAAAARnQU1BAACxjwv8YQUAAAAJcEhZcwAADsMAAA7DAcdvqGQAAABhaVRYdFNuaXBNZXRhZGF0YQAAAAAAeyJjbGlwUG9pbnRzIjpbeyJ4IjowLCJ5IjowfSx7IngiOjUwNiwieSI6MH0seyJ4Ijo1MDYsInkiOjE4Nn0seyJ4IjowLCJ5IjoxODZ9XX30VJ1vAAA1BElEQVR4Xu2dD3BVRZ7vv/PGfeMavQkshgxrlkAyM4qABBhZlD8ykHpSUFKah5Q4CtQSXCmcckZnN8UfyxrAl9nF0VIf8yRu+WdmmNLslcLBYl6FjPJHGP9gGEDUMYEwsBhiFpJo5ulbffu6+/S5t8+fe++5N/cmNyffT9VJ7unbt7tPnz/f7l//+vTXRo8e/Z8ghBBCSCj5L/o/IYQQQkIIhZ4QQggJMRR6QgghJMRQ6AkhhJAQQ6EnhBBCQgyFnhBCCAkxFHpCCCEkxFDoCSGEkBBDoSeEEEJCTG7ejDd7HV74wWQU6N3etx/H3XX79R7pT2oe/gTrrrkMm5cUoF6HOVmJn99ajQr58d+iqHrrGRVKCCEkHGS/R79iC6I/+A4+fKIa1dVyexwffud+vFA7U0cgmTJ300NoalqDv9f7KbmnG+v+9s9o+V0ikZ+DzfOEyEuB3zGfIk8IISEku0Ive/ILi/HuE3dj814dhv3Y/Ny7wHdrsG62DtL8/bZ/FsJlbC8vxVz9Hekjc3tx9NYu9Pz+Ksx7Woe5uWIOxl3Ri7fep8ATQkhYyarQL7tlMgramgyR1+zdhw97CjBsrN4Xcv60EPbF5afRMPfHmGtvPwdu36SMyKSP/LS6E5HuEXjy4a/rEB+uGI7L9UdCCCHhJItj9MuwJToXFx29+TjLHo3iFryC6geeVz15S+Sfwv/S3yfCiqt3BJ8dehqL1rdYO6vXoKkaaKi7gPm1lUK0ZJq/xd+8fA+mFYrvW3+LuauaxAfZsLgZiP4YL416CGunX6F+DhXfXQYrbry58SnerPsJ1jbqXYEqE0TaDSOxU+Vr0SLSv2er3tFIc3s8P1f5Ber7cS145LbzuN3INx7PXR43Pscge/M/7kTHjtGJe/OSUU+hcVoJ3trz37HuUx1GCCEkVGSvR79iAsb0fIh9SuSl6EcR1Zscnz/5Sa+KJoWrUgp36/spRF73+kc04xG7x1/XDEy/B03bTAP/cMy/dzh2C4FvwWjMf3kprj3xNB45JJSr/BrHeHZF9T9boqrSexpvdo/GYnO4QDYchKiWCJG1rQyPHAKm1f4znl6t49iU34ymWpmvHe9Tkf5DeKRKfy+QDYK10y/ErRa6/DvdVovCSqxtuhH/XqfjRU/jchHPyrMJ9xh5WMKu46nN21iqmflnRFCEw8lEnhBCyJAga0I/c2QxcOEs9mMm1j17C4rffhzV1a/glPiu47zhcb/6GtU7bTkie9qJmbvpRhFPiNpt24XUaRq34wkl4Dcagip6yyd+GxO7y4XcPxHrMQ/H3xjCi27RaIil14K1e04Lka3AXBWnAo/MG62sAGaPu2n9dtEgEN/Oc/sPyJ5+XGSb9rbgM1GWv/qWDqhaivmiQdMSNYRYl//y6Td7HOpaoobVYOv7onRAyajE/fjEfIU51/wZOHkp/lGHEEIIGbpkTejHXlmA3k9OArNn4TuRXnx4SIj77KtQjF5cFMHpIcR3nBDw7gv4SIfYeARVCO57IixG5/l4w8DFZyfecn730YV4WlXX49pCEadDiL+DFjSdEI2LwuGIZSnpFuGGOd/N3NkVaiih2WXKbzp3Qfx1NUB84mXOlygWx9HTcYneT8w9V4mWyKcn0ESzPSGEhJasCf1Vw62e+8zp30EBOnBWmvDHDot/zoQkop1Zbzc17eeMRoMDtzgn51vFclx+NBabswrkVj3aijCA3HP9bjTeuhuTzs5H1Z6H8DsdTgghJHxk1es+Rs9FyE68MucbqB6/6kWLPvukvk2kSyzIueIC/pSkB+/mow6/8XR7czr39TdPvyUEfsd8HLlKCP68n+B7OpwQQkj4yI3Qm2jRl6Z9NVbf+Bbe6xYBLkc5J9pc7hMnkUk8Exxp6XJ5GyB6GCGl86ATfxN93wiW5iXoEMcRKf5S7yfm6bOtwBXjMDc+KYAQQkjIyI3QR4ZhLJZh0Xftl+Auw4SyUzj2rPzcgrU/bxa9emnWdr3lrWopntYe6U3r3xAxRRzTw158/4PpV+CzQ3Hnu4zxpKWd88pvdnjYz920FNMKP8WbDYkGERKw9bd4s/sKTKtN4012qdA+BdMWJ7OGfB2vvX+ZaFl9jp/qEEIIIUOXrAn9WdHZLB45E/vrmnAKY3CLmlP/Ck5FJuP+6C3ArgfxvI4rvc8X2dPbzPHre4GXYh7vclrZb9Eip7HZ39dWoj36Y4dXfDrIKWtJ09r6lJraJqfh2fGs6XGZmNpFw+G2H6Oh1Wec3jE9MA1kvYnyqal9sfS8DYn6/ZehB12Yco8OIIQQMmTJ2gtzZta+gPuvbFIvxMk/rJfOyPnxmTYSBhs/3XoaS8YW4cWbCxNPs+MLcwghJPRkrUe//9CH6C2b63mfPRkY/jE6QvXql2z9Qof48KnlGEkIISS8ZG+Mfu9mNLUVYPIPtmCZDpLInv6WFXqH9B9NBZi4owgY246jD3+lA118+ie0owDXX7NSBxBCCAkbWXXGe/6BarzSJsfn46+/vf87H2KncsIj/c7Thdj8+8sQueZz1OggJ8/g3h1RtPx1tZpX33g9BZ8QQsJGFhe1IYQQQki+kZvpdYQQQgjJCyj0hBBCSIjJmtCPGTMGl156qd4jhBBCSD7AHj0hhBASYij0hBBCSIih0BNCCCEhJmvT6+QY/ccff4zPP/9ch+QXldtOYWG53hG0RcfgF1lYAW8oMGvOAvywMoLe5lfx/dd6dGj+s7z6Diwylv8/2fhrPHBM76SJSmvYUTz2zHvYp8P6Tike/dEMjMUZ7PzZATynQwkhJJsMmR5986ox2DhXbHUH0aXD+gPZwNjw8q9QovdJ//Fc9Ne49Wdi234UvTqMEEKGGjTdk5Ts6+xW/893Dp7e/OCgGxdllfZcxEkrgBBCsg6FnhBCCAkxeT9G7x5b7zr0CJ5cX6/3bOpwV9MSlOk9uRb8rrlVaNZ7Dqp+hftqb0BXwjH6Gsx/eS2mFupd9OCduuuw22c9+pJNf0DN9IjeM8qm8yjS4R66D6L+tjvRrne95XfnqcvU+SI2NpQ60vavD7veEpc9q5Rci18unYgCvSvLf3j7q9gUP0BrjBsHcOsbEUdcx7i5SqcMH4jfnr3RGF/v6ePYuC7f+YRj9BGsX7kAU+Kn0uOPEBuj3wWsSlR+je3TEOO0OO7oGb1DCCH9S1736C2xkqKtx9fFdqB4DeZX6QgSKapCJIuE4NlxdrVWYGFTIyp1lOBIwdWCqtOqPwRMrf2DM08lvKeEyEMIabxsDbjditd4J57UYbtaxb4Udr2vNlPkVzdig6v8Vp6ncNdqHcemfAk21I5Hi51ntAVF09d644njGK8aRxFUzPZfziZ7lOLRhcA2ORaut52nI5iydAHWux0TRs/ADiXkVrzHmnswtsodT/5WNwpUegdwMjIRP6wu1d9nn+XVM4Fd8fLf2ngGBZUL8Ms5hlgryoTIJy+/JfIQDZ14eo9dmIhHJ+gIhBDSz+Sx0NegZIT413rY0TNvXuXsoVYuFr1bIaQNRq+2edWLaEMFZmxKT+RKNs0Xj3LRsFhVq0OA9vVP4Z3uCKYurtMhgtW3ix6/t7fcvr4qzd6zaDDMqxDH+KKjV27lKWRlntuJTzZ6jDy3HhbHCRSNch9nLY7LBoboWbfs9fb2s8sZPODqbT/3hnR+i+Dqa9xC6ezp73vtKE76xXP0gM9gpxBUjB6N5Tok2zwXdVofcOwoDossC8pLMUsHKUQxpbXBXf4pN8YbIWOHi0g9bdhnpLfvtVcz9vYnhJC+ksdCX4/2TvFP9mK3GSLrwOq5dp143TCDS1oh/ceKig2bf0pqUDlOPKRdDYtYOUaUxkS3cpIQ5+7jaO6rSbzqJlQUivJ3KFU2qEfzCaE0hcX4pg5RdHfgY/3Roha/ED17P9O9NcugH8z2frT34Lz+6MAlgLYzWsHw2DiJ4uQfnWZuyxmwEFe5LQQ5owdnL+qPJgnKj2GRWIPg5AURIC0QK691NhIIIWSAyGvTvRSr+kPiwSnFvumU2u4ze+lVpWqsWpqv7e+tzRxjD0o5RsjfGHnZm+kjELM0dJ5xNS4yp+tcol53MUocQwb5iTRX7/jRHcYm54bnFjlm7szzDh9Te0DkGL4rLXP+fWK8DQLZe5emfyX2dno5HHYghJBU5L3Xffv66/TY9SPKnC1FPSb24oEq58RLhzR7fNuxGSb41FhWAGlG900rNq7u7eHnjg60D0SPPA1sxzPplBYb45bj6vr7XBGbI29sGb3Mx3YklMMFRlo7T+vvkxLBVcPEP9GtdzgKHounpdKRvgkUe0LIAJH3Qh+nHrtv02IfM8lnYqJPRHAB/7hDCErheFQG6G1bcV0meJvG19Eiyl82yT00kWgYITjqRT1NbifCbBPBrHI5Jn0UOzMZgy4pxdXi525TvZvl3xYi6TGbZ4dZ15ShQPoOvJGBV7wuf+8F2UL0RzZIlNgb5v20WbEF0WgU0WfXYaYOIoSQoOSx0NfhLvcb5Txj2kL897Qoc7vDpJ8hzQ0H0VV4A2oS+gRYtK/fjTYhclNrnZ79JZsaPcLafq5D/E3kGBgvv+k5X7JpjeXs15CORcKkv7zutek6UoZZ9olSZvAgpvsI1i8UPelUjYQJM5QZ/eSb2Xz1bBxr/N90CJRT7YKY7uPl3xazJMjfznA5DZZigkzL3etPg5kji60PkclYtML6SAghQcnvefQ+89F931HvO2/d9Ip3z1M3cc+594/rzdc9394aQvBzjHPPt/fMo5dT7Kor9I7EXSadF9zz7xPTf/Po3XPQ5XvbT2OCEPuRxlx093vnFe755bYZXe9aeOfkB8N+j7wfznfLu+e9y2GIY9/W8+btGQWiwbGjymV+950f782372sELMOW6C0YIz6d2lWNB5+1QgkhJAhDZlEbMrAEWhQm5Ytthi7LHo3ilrJevPvE3di8VwcSQkgABtEYPSFDlBVbhMgDvW/XU+QJIWlDoSckb5Em+yiiC8cok/3ddft1OCGEBIdCT0je8jwerK5Gtdg4Lk8IyRSO0RNCCCEhhj16QgghJMRQ6AkhhJAQQ6EnhBBCQgyFnhBCCAkxFHpCCCEkxFDos4V8jW0mi8jI1/eay+K63+9PCCGE9IFwCL0WS3NhmEFD4514Ui+Fu8teqyesjPoJrt2wG2WT9T4hhJCcwx49IYQQEmIo9IQQQkiIyfs341nLreodgbkUrPs7N+6lZT3xW1/ExlXxNd/VcrLjjqP+tjOoMpaq9V1+NuXSuJLgS9lKVPlGJF6K1rPcrav8VpnGo0WUoX2xcazuZXEV7uV43UvjxrHz9V0iOACRO3fjmiQL1J9/dT7a3pWfVqJsQzUK3vonvPdJNaYtiJ+seBzgG//tXzHp+na8v3GNqHEb47f/+zUdJpj8lCMdnIzizV89o3cIIST85HWP3hJmKUDWGLbcDhSviTm8Na/S4XUH0SX2pRDZ8eRmipIUq/FHjO/lb8qXYMO2Oh1DU3gDaprmo7NOx4u2oGj6Wuf4v3S8EyLfZeYn4rmp3LYG+Lkzjkzrvk01OkZQZIPhlBDbDqMuXkSbLL/HeS+CqbWnMKPjkXg8eUzmcSqfhiUoEo0Ou2y7WiuwsKkRlTpKnBpUjrMaF2WTXHUVkJ5fzcebG8X2L2/jM7EvRVvt680WcJvLr/8HIc4QQm59f+StXoxc8K8YOUpHCIhsEExbUIK2f7HziuL8WNGAuHOljkEIIeEnj4W+BiUjxL/Ww45eZvMqs8ccnPb11zl7o4134oB0fiuf4hG3tqiRx9bDaBP/ikbZ4ixEd16F6k2n6t16yrr1JbzTLdIad1N6nvWrb8fUQmktMHvctfiFbFwIEa9yOyGKssWtBrU4Lo9zRGksz8rFN6BI9PIbDMtC8yrRIEAFZngaIfVoPmH1m9uOGNaDXNL1No4YvfUvjp0QDYQC/GValbYS37y+AJ+99T9x/pwOwjNoe1VUxtib0240EELIYCWPhb4e7Z3in1+vO0t83BE3/MZpwfFkAl51EyoKMxU9fUxpUjlJNCzQgXZ3A8fTCLFIXrY6jC8XWnridZcpvxWdshFSbI5tWMhGkuz1Z2K2z4gLf8IX+qPi3EN4z6fnn5TJkzASveg8ZpjxJe0XMmg0EELI4CWvTffSNF9/SIixFHs9zzx9s7eNHJM25quLzTHenQvcc+TFlsynICndHfhYf3TjJ84JqSpVfgVyCMEs14Ympy/BYOcbV0olL0DZ3+3GtA3G9nffxeVWFEIIGRLktdBL7N7kxrmPWGbvjMa4teOZdErTY9JyU42IXGE760mHOSPPXMyV7+pII9HGM8qfQToFmuWKbaZz3yDmi0+kvaLXGJ93bmlZBwghZBCT90Ifpx67b9Ni7+7BavFym7BjrJ6ivMvb9vh7s6eFb1563N6gZPZ40XPuwTsNfRfO5iNyLH48Kt1v3VPH1YOWvf5e/P4kNtEnQjoyyl5/n19IdO5PQnpFP/vKOdZ+NlGmeoO0TfQzse7ZKKLRKLas0EGEEBIC8ljoRS/c7VGux8e9PVgtXtNv9/EaF3zUocTZ9BqXHv2Zme4t5zYzr8ptazFVCK7Mw6b9XIf4G0HFbLtBYHnOZ2S6V058EUy916wPUT/V0ilwd5rOiaLBtEc0HMqXBLSM9N3rPk4r/o+opMuvrxY1kzlWb70cw+037Lmn0EnOPYQzJ5GGt/5YDNOFGjNrnZB9QggJB/k9j95nrnriudzueeGuuHJKnBRGjTRdN2CNnrJmebNb88Xj+xZWunIqWtyT3Tk/Xs2N33tTbA67Lbzuee+yPMcnOefKu+OYOOfcO/OUeObk6/qS0/7MOvKdn+9Tt973AFjYZcx0Hr0Ta7672ft2z6MfGWCuuzWXvkDvteL9jVH85X3/gBF/dM6jd8bTSK/+Jx9yOvwJZta+gPu/K+L2vIvHV2zGfh1OCCGDmbx/YQ4h/cbsdXjhB5NR0PYKqh94XgcSQsjgZhCN0ROSS2Zi3XIh8jiFVyjyhJAQQaEnQx5pso9G78dkvIvHqx8EZZ4QEiZouieEEEJCDHv0hBBCSIih0BNCCCEhhkJPCCGEhBgKPSGEEBJiKPSEEEJIiKHQE0IIISGGQk8IIYSEmEEwjz7+jvfsvGudKEZtx3+sugFf6V35nvu/2DYRXz+nd0nW8F1rIAiu9RkglzwOyTLC+QGfLflEvtwn/zn/KL6YZqw/0nUQ33h8Kb6mdwcj7NHnGHnxbnCvwpdHXPKbMlz6sNwo8nnH1ipsnDtGbNbyzCQgcsGmbCyrTAYHWb5PvrZ7on4mluG/uhdKHaQMAqGX69DLk8gW98AgV+8TjRVjC7a87eBANcQ8omAtKZyVNfjDiBZS85qQ2+C7Lvrz2RK/pjzbtr4u/5x7eJ8MbtijJ4mRJjG59K80hakWs7U14HbMr9JxQoJjrf2qm1BhLAdM/JHmbvuaqD/Ug6Lpa0PVCMwJrntJbYNoOIb3yeAkj8fo4+NnFj5rpauxGWBXXQdmqLXVW7Br7ksosX8XG6ux1pSHeDA1jjLXf5fxzbXnJe517b35xtetN/KSdOvxJd+13g3seHo3SJ42WVsbXo/Rf+03ZbjksA5zoMsUaLwrRfkDnadWdb4rTjyCA8VrsbBcr7d/7nY9/uauk1R1Zn2f/Jxb11jFiYPoml6M4zpc1vFiHBdhN6jfx+rZc179rp/4OXJgnPP49WP+1ipvkTzm9fU6zEbfC52Jz4U7T1V3nnSyhK6HLsc1qM9Hymvbv87U+Kw45zESXXdJxmM9abiI3zMBni36GOFTj1Zdw+caTzZOnPocxkh5nRlpNZQ64sbOu0pjPFrqdmNErax/6xjbF+s6cp+npHmmeZ+kvDctUt0n/teZPs++Y/kB6jjleXLy/+5qw//9K47R55C4WW1jtEWH+VGMGfcW48DcF9GGCsx4eY0SC9nDQPkUVOpYkrLqU6gZdxz1qiUtx3MqsNAcP5cXgX7Y2q3t+kPA1Fo/05T4bZMlTFZckX/hDaiRZrjGO/Gk/v0uOcYjL169rza/B6G84GJxxM15r9+4fg0qx1k3hqNlnQtWT1E3atuRFA+lwHUW8DyNW4MZHVZ4kfh8n2wgqN9EUDFb9xbTOE/qnBfv1vF8zrnidRxvFWVSvdE6VAkRPrD+dXR2A0WjrDzlQ2mDfujYee4Sv1nY9AeHdUM+hCwRN+PpL3OEJ8+6g8BA9a47zzjFw3WerDprdNyXsm7HH4nXlyx/V/kSj0lbHqd8SJuWhI1HpsTOefMq4/di3xFPbHGxCPBsaXwdLfL8j7vJda3oe7B1d0y41LVRXSzEzM5LXK8+5Q9C0OtMIfNQYq7jimMpEufdvAcq7p2Pzjp53Yv7594/YCHEc0Yec+F4VNrpaUGVjRo7z42yUe4pf+r7JOi9ORD3STbP02AjBKZ7cdOdeCnW2i0SLcyGWAu8GCXmzeFoxYqbfY95wYvW4DzR0hOCa7bg29c/pRw8yuZ5hVc+SOJxa8VNIP6NKPUR6CRUlapWtFNQa/ELT2tVUo/mE0IYBSkFuI9UTpKt3hYcN1rSXtKps2DnqahQPjx0eGFEPPDiPZmiYtkVSfM8yXMea7Hr+issxjd1iE3zEfGQlA912cBpPRzL00I+1ERZxMPL7Fk0r7IaIFMX6weFeGDOEEVsM8qcc/zyFA3NBmVKv90hqLmkcpvVgzOvy8rFooco6j9+nu06s8XCon39dY56leU/IO8lswEYO05n7046Yjn2s4Z9rRiCKNHm6vhx2tfGU0aPVdy/UkzL56c5xBXwOoshe91GT3nrYRHPEF3xm6LOeINE3lu7YvdCBCO+pT9+q1jcjz1o2Rs/T6qz4tPTTX6fBLw3B+I+yep5GnyEQOhdF6jZo3DRdeJ153cfdYiWv77g9Q3c1eFuViYShx50fqQ/alSPwlegk9B4RvU+ZM/T3Rv1Qz4UZWs0Nw+3NEmrzgKeJ8fDw1vH6Z4nzzl3UI4RMq1zolxbX8I7GI/F4kHlaURp64aK58DZuCuZPV48MFM1jrJLojzbz3WIv66GbpaR16ztULawXIqO03w7XjzMvfXfavUAVaMtMR93iHNpMBB1275+t9OSJPCUQ10brmtbYj5bTGQPUteZvcXu+4DXWYzuDnysP1oI4RLnwBRZx7Xsia/RZZ1a62M1UAS8TwLemwNxLtM+TyGDznguvDeZTa4emvLmtKaFxB+ciW64/KT/6ywXecqHkRAgHESj8QCKC5JPo8PGx0LQX3yzWA7lSNOuUzwc45A5wjaNq+EXVy/dtlRJU7KjXE3m2LiNHL4y40izrjVEZaOOM5FQ5QxLYOPme8ts33UobpkqGVUs/kqRdJZfmt/j490GjiE6a3M22gfgOlNDjdpqEDsO5/BKnFT3ycA8D1KR9nkKGRT6wHSgPWbyyTbGmKEaX0zWuu4frB5VBcYHsDIkJpd1lojM81TWknQtMpJ+F6A41nmyetNuAdlomnVziG2adQwVaEuVNEN7yyW2mFnYcOIzvrcaD3HUcQ5Ag0qaqmPme9VjdfYKLcuJdDYzjs3Ysmp5y+l1ZlkDVLmV34LXl8Im4/tkQJ4HFv16nvKQIS30DhOSdr7xOrnZzjfu8ahgpP2Akq1rLfZ+5iTlUCJaokHM/H2hfe9x9aD21odBjuosKdnMU/c6U6LGPp0mXAunedrXXK7HI1OizbbpkraJfvY6vBCNIhrdgmU6qO9ofxdHrz6Yid4+7rY9yYXDOs6ADU/dyIiPVfcBaaqWjmzi3KvnRfdxNJtilU3Tb8DrLOfIF9AosdfXVdD7JOC92af7RNdF2uTKRL9ii7iXxP307DrM1EH5yNAVenFhLVbOGbYZTj+sypc4RLRk0xpMFa34dxq8jilBsB9QDrOmyepGj3e01QDxM+HpG0aQVICzgXboUmOKLq/Ukk2N2tqQmzpLTn/lWY/2TvFPjYvWolE5t61xWFksB7SWuPOgflDHnaZEb1V6M3c7e6ce0ZKeypma2rUQTa1NZGp1MXYYCtSHMZhbm8VHkyqH2auPn6ek3v/qAey8ni2PbOs6j6HTL6t2WbpE3XkbvbqRkRVnRGt8uWjc7agS956nQaIdBz3lyoiA11mWkZ0Hdx1azrhBeuDmfRLw3gx4n8T8l2LXhrb+6L20yOp5ijNzpBwSEEQmY9EK62M+kr9CL4Q49vYt9RA0xlcyfKWsY7xQXFhyCovpuGK3ZE0nI2sKSB9MoCJNNVXMzNssv/i+AWvi3yXNUzu1CDyOMDlAmejsqU5G+RbjpXjZclFnqRiAPGVd2NOE7DzVXF7H/OZa/MJRX3Jq0xg0nNBf2+hrIlZ+NYXQ+/pONZ1MpaPHtY3zEH+QiofrbXJqks84vd+0oWd34l3X8zQ76Ie82aiV50nUh5zq5yiX6YMiLViy92gcmz290ol9nMZzQG6TDvuYXWVcy7vfrJNYnaX5bFHWrcIKlBX6O5BJJ1z3tZEorVQEu86yi8zz+CSj3H3JM9C9GfA+8cSz3ovhvjaC3SfZPU82++uacEp/zmcGwaI22cBqCcq5nQ5hH8qkfGEOCSsza1/A/d8twKld1XjwWR1ICPEQ5IU5yx6N4payXrz7xN3YvFcH5hl0xiNkKDF7HWqEyKPtFYo8IX1lxRYh8kDv2/V5K/ISCj0hQ4KZWPdsFNEfTAbefhzVDzyvwwkh6bMMW6QT3sIxyjJ2d91+HZ6f0HQ/VOF69IQQ4iGM69EPEaEnhBBChiY03RNCCCEhhkJPCCGEhBgKPSGEEBJiKPSEEEJIiKHQE0IIISGGQk8IIYSEGE6vywT3IiRyjenYspvhQb5DeqGxUpRcf7y/lnNcXn0HFo0GTjb+Gg8c04FZQKU77Cgee+Y97FMhEaxfuQBTYtNme3B4+6vYlNEyYaV49EczMLL5VXz/tZy8UJ7kHQNzzu37wyb5fWKVcSzOYOfPDuA5HUqGDnnfo1cLFvRh0YGcIBduUOsYexciyQz5Qp9TyVf5GgDkIhDqOOXCEjpscFOKCbLx8KYt8pIebHrm17j1Z2JrPKPDyFBAiuWOlddilt7vD7KV53NRfc1uP4peHUZIImi6DxEJG0XSAmGuGDYIOHlB9o56cPETaz8bzJozUfVqjmXRQkBI/tONi+p2uoiTVgAZYlDoyRAhglnlEeD0aZouCSFDivwco5frRdfegCK966H7IOpvuxPxYVTrXfZleg9owS5jLWU11owXUd8xHzXTxcNejqk3lMbysMeeSzb9ATXjjou0z6DKSK8r4TvyazD/5bWY2plojF5/L9dI1phpqfxkeRLgyTeFb4A6TrmOtKNuBOp3xXinzloT2spXrhH9EkrM8nnqVaPPh1y/P/EYvT4HidIYaCbMwI6qwuTj76niqO9L9Y7EPeYZH6/dhpn4YaV9bv3GRu1xU5u++AZI3Omln6ca98UBPHZholX20wdw6xsR/HLpRBSI72PjwCXXirAyfCB+e/ZGY6y4x/R90Ki41u8t/OsMIu2dIxakqLPU/hT2MZjlljjLbpbHhd8xJCXAOQ+ap7q+gJ3bL2Keii/TOIqr7GOW5yPqGl7SaZ/Psi8LCRf52aNvvBNPqjHwMdjVKvaleOh9tZlCIkVIL1hjf7+rtQILmxpRqaMoRszH4uLd2BhtAcrn4757x6OlzhpjL5tUpyMJCm9AjUgPQtRUeiJ+0fS1uGu1/j4NKretAX6u0zHSssfi29dfp797EW1iXwp7LK7YTJGX4myJtf29+E35EmzYZpQ9LWQdrUXFCTtPkZ489kzTWz3FahgVjkdlHg4RLP+2EOieNuzLVEjlA/Xbp61xUbW9isM9pVgkHvLLdZQY5eKBX96Gx8x4jnFZLbjywR1L7yiGLcxw7FYKhCe905hQbTRKdBwpSHacx0RLeMrSO/DoBB1HMmwiVg0/avkrjJ6IXy60BP1wDzBW1mGMiPqtElWV3gGcjIgGgpHnrDkLsEOLkJ3nztOyzhZgvWt8aWzVHfihzFfFS1RnQvAuxo/RKr83LYwWx7p0GPbE4vWI9HW89vfwfR2+87TYlyKr99WWlsjHKagUjRT3ObfrIq08CzFvoSy7qE9xzPNWzsTVra+qY8Do0d5rjZAADHrTfeVi0SsXDYEGQxSbV0nhrMAM07lN9FpbGuzer2gen3hK9W4VI0od49oO7/KtL3kbAwFpXmX1oGPotIrG3ZSmc2EdqkTPv+uQUWbU4he60ZLp2Ls8znhjohbHZaPKVReB2XpYNVbQfRzN5jHnBX5OeGkiH9aO3lQPNr0p90XaplAKCkRNxHuFOp4QwUV2vJIIRop/J/9opncGD2QkMqKXO00Iiqe3J9KL7cfjmJ7h+17bbwn4NENQxa3xwRvx36F1f7zHPCzibIg48hS9T4cYCaETvdte0bAwe5rPRaWAiUbCjWajQSDFL5ZWD/a1irQiw2LWB9u/YqdxjFb5fdJSPf24NWDf+23oFXkOu1IH5AKHJUCXPyNhlnV+NFZ2eS1ti52zQlyV0c1JhjqDXOjrML5c9IRPvO4yFbeiUwpqsTE3zCVAXecMk7iDFhx3mKfr0d4p/mUqgA50Wumiess9aNnrKvNHHegSD4YR39L7adGDzo/0R43yss/Y7C4aHtIykIdm+5w54X1y0dfjubf1jFOwdbyRI6T9VdDeg/Pin+zFOnrTmVBSiqtFss5Ggwsdp/eCe4qIV1DdVo/znbbIeHHnuU/edLYYiZaVTNP7e3EeZK/W1Wjw1JmDRP4VPTh7UfxzN0D6YrnJkOTlT4cefPC+UWcXxTnSHwnJlMEt9FWlaoxdmsM3NJ0yNue4+IChhhXMcjnnpQelZFSx+BvB1FpnWhuS+TEQjSUSvc3xXlKmqKlRPzK2ZOOuJlrY44jetjLvWmJvpedjgg7ClcNEGYLNTkgs2rnqKSYpl9m4SEmh1HLLJG/Wv9jMueSEEH8Gt9A3nlHzu91j27FtIF9iYzsUSoc5o0zK5yBN2s91iL89xvi8c+uvl9gMSiZMxJSIq5eUAcrJa7Q0CRtjq0HnMGtTvVNojfn7Kh055p2B2CtrQV/N0t04299mmLSmeunpYQ4fBGPLcFydkKFC3gv9xx3iDi8sxjf1vhMfE33WSTQ8kJyS2eNFb1uIc8wvIBkpjiMdE71PXVkWgQ6053Ts3HrpT7++3Eg6yKmenY9DnKbPTngKa4wfp49m5BU/65qy5L1uOf6vxd5XsJUjnThOvxet2MMADkc5F+1n8IG4jbxxEpnEM8NR18dOq7H4q6+RXXETqy7TM3UnMNH3EfWuhiCWhQDXWVAC5zkQrNiCaDSK6LPrMFMHkXCQ90Jv9WZdjnUx6rF7j3RIW5Kzt8pVbpPT7FpwwJzmFgCr3BFUzLbLJafaJTLd67H7RI51jXfiQCtQVp38pTfNDfINdq66qvoVFitHvpdi0w1zwgB43VsCKvE6xCnEA3peX53wFLpHaTpXSfENYroXZVilnNIMpzbx21/OcQpgssaAElBJpAyzPK0o2wnOnWYpHo15wGuHQBHH9AmYNWemsnYcjjnf9QFxTOqVxbG6tspVUDnTYaVYXi2n953BnjRfF/vcG6Ih5PLq7yuWT0Ep5rnOhZuU11kaBM1zIJg5UnYIBJHJWLTC+kjCwaB4171nvrl7rrZtJte7FtLUbXm9O+aX67nolme9nucO6zv4zWv3mReu0kvQ+TY99t3llt8dn5RgrnuKOfcS33n3AerCMYtAYKWDWP344343gYnzPQUWAzCPXva0YvON3XOupZDJedndvt/FiKXhg8OTWk+JU58F8rtdwCo9fcz2LLdM/NZnG7/3kFtlM8+l/zEoZKNCzt93lMeFHSeGT3op4qiy2+sA6LhW2fX8dejvfOvMO6dd4jlOzzHE56GbMwL8z53rHGjM+nUcgxUUO8fmebJJXT5B0ussnfJbJMxT1bn9Hgd9rHpmg/UbOL/TP3eS5DpKyTJsid6CMeLTqV3VePBZK5QMfriojYElgPJFMm4RI4MPS5zkHGQuMJNlkggnGdwsezSKW8p68e4Td2PzXh1IBj2DfHodIQnIkhMeIUOGFVuEyAO9b9dT5EMGhZ6Ek2PSQ9trSiaEuJEm+yiiC8cok/3ddft1OAkLFHpCCBnSPI8Hq6tRLTaOy4cTjtETQgghIYY9ekIIISTEUOgJIYSQEEOhJ4QQQkIMhZ4QQggJMRR6QgghJMRQ6AkhhJAQw+l1Ju73xPfne9tT4H6/vvv99QPLT/Hlw0vwpd6TXPKbMlxyWO+Y2O8NT/be9kzweS2r+73zfu+cD4rvO9QJyRUp75M07jky5AlHj14KdNMp3LVa72dK4514Uq/xnsm68bmkeZVef75OrlCXn3z9zc249OEytfX3A0etMCYeijsNIX8uqtcrD7puPAkHUiR/dIdjpb7w8Y+4RN9rl247iK/rUEL8oOk+R8geuO/a7HL1vKbky82GGr1+ulz3NXs941IskkvBprXGOSF5TE7uEzJUodCTwc+E0RgLLmBDCCF+5P0YvXts2lyjPdm68BLHmvOFPmuo6zF5uNZ9l6i0fdeNt3Gv1+5MP+Hv1Xr4xfG14I399sXm8fit+S7QZe5KMkafrM4c2D4JrS9i46paHZgJ1njhf765GX+x2yefnKLXSr9ordvtS8plVXUaxhLhva71xWNj9HoNenst9kBrzes1xTPFnZ67bBK3P4Ijjjr+Mnyw/SiGLZXrmFtrx5+9Uf8mNg5srXMOcUw7R5h5+q9xnjRPgfoe4tjfiFjjzTrc11fCvVa+q85UHZS3iXL2YJGxFruZp7s8bjL20UhRNknQc56qzjJi1Hb8x6ob8DWO0ZME5HWP3hIsKXh6fFpsB4rXxMze7nFrKex2PLlZQliP3XtaxP8KjHeN4ZfMHo8i8dBr2ZumOCmfgCUoEgJq57WrtQILmxpRqaOkRwRTa8WxQgiuSu8RvNMt0vMz/acgVZ2ZWMcvKJ+SYbnzgJJSXC2eryf/mLmQLq+eCezS4/lyazyDgsoF+OUc48GtKBMiLwXTivdYcw/GVi3AeuMkWQ98CCGNp/fYhYkZjhfLBsgdnvS2YaKRpxRnIR6yEaK/lz4JEOXfUW2Ik+DqhRNxUQj84Z6I+LzAEmFxrIiUYZZxDGOrRJ5SVFV6Mn4pFq28FrP09+nkidFCJJcOwx4dL1Gd7agqNI7xAE7K37nTikzED38kj0HH0+fJrlu3T4YUdis9a8tE5KUwS5F3pPXH0Y7zGfScWyIvG03xeHuGz3TUBSG5II+FvgYlI8S/1sOOXm3zKt0TToeth9Em/pVNqrP2FTWoHCce5K27006vcrHoBXcfRIPRS25e9aLIowIzNtXokPSQve54r7oezSdEK7+wGN/UIcFIr87a9x63HPtc8QcTfk546fJc1LWc7bGjQtyAgvJSQ9wE4nL5QAilHXffa0dxUgROuTEuSGOHi0g9bdhnpLfvtVcz7Elaa+rL3rdZvn2vHYjtz5ozUfRuhXiYntnt72GbEFSMNhsEERRcPBr7XUGkGztjPc4Ihl2pP0ocnt492PSmszEQPE+JLH/cGrDv/TYhwmZ+2r+ieb9xjGfwgGyAeNKS4m3UxbHTov6BkSPcDbIsUXIt5onet8cScOyAYz/YOY/gqmHi3+nTDsuI59ojJAfksdDXo71T/Ctfgg3bTIHOhFocl170Zs+16iZUFAJtR9I1WddhfLkQ5hOvu0z6rejsBoqKk4wlJKHrnNOq0L7+OtEb9zHdJyXNOrNnGfTJbD+Q5MoJrwdnL+qPJq6HOdAtfaWAYZFYg+DkBREge56OHnBmLP+2aEB48jQR+ZZLkbmoBM/EK6guq4fPb2w89fnJRSOt9PJMXn5BIv8KR542Z3CsDw26dFGNyAB5Bjvn+prys1QQkmPy2nQvTfP1h8RNJIWr6ZTa7suwx9zcIM37cfO9MluLXnljunPRq0qVubto+tpYmaxN+gFYUQaSbNZZ3qNE4gz29HWMU0/H2mFsycZ643gbBLInZ5nDpZlZp5fRg133AIN4XSeJk7PebpbynDVC3jQRTFnqrP8dxpj+QGH11BM3iGyCnnM5tCCHLpTY63je4SFCsk/ee91bPVt73NoS2IyEq/F1tIjfW+Z7y2zv7ZUHQNzQ0tytTO3GOHhsy4PecdbqLK+JYP008TB1mULTRjvqFUjnKWPsdOdp/X1SEojxsXhaKp2MenG6EWFYCzLhfGcfG0EZkE6e+6QZTByrOb5tbhkNeWQJq6c+LOb4l5SA51w1ClQ86fuABL4ghGSXvBf6OPXYfZsWLrd5XItv0ahkYqad8qT5XpntM3DCU6RhovcZYy8ZVSz+dqA9XT+DjEhSZxL9oqG+D41kG8sJTfZ43A5NMbLghCexzLNCaN7IIB1dht4LUqz8kb049eD3E+yYJWEGlusgE0tonI5yTkQDo1XEGT3a8/ugZucgONPKcp6+Jvo+ouegp7YsJL/OrEZIKSYkugYTkPScx+jBpme02A/PA1MgCTV5LPR1uMvtda7H1bs63K+t0+I7/fbk3uPKKa8CC9WUsvSd8CzsBsOSpL1ke6jA4ZwnhHXx9Ai6Dr2UI+e3dOpM6Ey+et1rAZWMlePUPiy/0Xo9aF+c8CTWwzyCq6+xRcF6+Kc23Yt4C60ybIsNHcjfukVbCIVMy8fUbQmjxF9MYs5+S51pzpozI+akZsUpxSKz9ygaEKuUg9vRvlk7JD5pZTXP9vewR4ii2xO/b1i+EwWVE30bUDFSXWfaKdNTtgkzjIZB0HNeikfdY/gBGoqEZIP8nkdvz/PWu5LE73h3z2v3j2vPMff7rmTTH1AjhNgPz1x0n7LJVnpsfrwkSPnVPPqKJMcl8R5bHNd8+3TqzI6bd/Po5cPTmtfuP/fZmu89MukcZCuOv9nVOS/cPQda5nns23r6mO1Z7p5LLfGdK+3NN+FcaXvYwFUeJ/G6sPGm583TUW86H+s9Ajo96GPTx2XF96+zZOcgYZ4CNZ3MvT6Aoyw6TOCZhy4xvP+t77td9WSVwf86SF2+1NeZhWd+vue8e/PyPeex8x0nWb6B4Tx6koIht6hNfJ55uh7tJDH9/MIcJU5IIo4kM5IJJ8lbKPQkBYNojD4b6KlxOTOdk9wjemHZcMIjhJAhwhASevkq3CUoc73ohgw2pBPTr31fL0oIIcTLEBB6Ob6t57kjf9aXDyNfTVuHzx9uU9uXU3QgISQHyOEy6177fNUN+EqHEuLHkBujJ4QQQoYSQ2yMnhBCCBlaZK1HTwghhJD8gz16QgghJMRQ6AkhhJAQQ6EnhBBCQkyWhX4lfn7rbjTK7fqVOsyPr7D9xdM4+jAnhRBCCCG5JEfOeFLwq1Hxb1FUvfWMDnNxTzfabu1Cy47RmPe0DiOEEEJIVsmR6f4ZNLzfC0T+Bt/TIR6eLsTm31+Gils/wfa5OowQQgghWSW3Y/RXDMe39Ec/6h8ejoPdf8YNq3qRbCV5QgghhGTGADvjfR1Lf1cEFHZiyT06iBBCCCFZY+C97p++FC3iX8V1X1j7hBBCCMkaORP63/UEXTrmGzh8Uvz7qy9pvieEEEKyTO569J9ewGcox81Xz9EBiWnpuAwo/BIVep8QQggh2SGHQv8Qbt0xH7+N/IOaV78jgOATQgghJLvkTuiv+Al2CIGfdHY+qoTg3/rBa/oLQgghhPQXORP67/31OFyOVhw5pwOSUFH8Z6D7EuWURwghhJDskbsefWC+wJSx4t+/X4J6K4AQQgghWWLghf6ez1GBy3Aw+g0dQAghhJBsMcBC/xW2f68LOBnB0iYdRAghhJCsMaBCX/PwBdxQyN48IYQQkityJPQrsfiaAuDfjiDhwnT3dGPd3/4ZLTuuZG+eEEIIyRFZFnp7PfpqVHz6Nv5HoiVqtcm+5/dXcYlaQgghJIfkaD16QgghhOQDA+91TwghhJCcQaEnhBBCQgyFnhBCCAkxFHpCCCEkxFDoCSGEkBBDoSeEEEJCDIWeEEIICTEUekIIISTEUOgJIYSQEEOhJ4QQQkIMhZ4QQggJMRR6QgghJMRQ6AkhhJAQQ6EnhBBCQgyFnhBCCAkxFHpCCCEktAD/H0lhhUhc7tHXAAAAAElFTkSuQmCC;imageBorder=#33FF33;strokeWidth=3;" vertex="1" parent="1">
                    <mxGeometry x="-1065" y="2906" width="506" height="186" as="geometry"/>
                </mxCell>
                <mxCell id="107" style="edgeStyle=orthogonalEdgeStyle;html=1;entryX=0;entryY=0.5;entryDx=0;entryDy=0;strokeColor=#FFFF00;strokeWidth=3;fontSize=21;" edge="1" parent="1" source="104" target="106">
                    <mxGeometry relative="1" as="geometry"/>
                </mxCell>
                <mxCell id="104" value="" style="rounded=0;whiteSpace=wrap;html=1;strokeWidth=3;fillColor=none;strokeColor=#FFFF00;" vertex="1" parent="1">
                    <mxGeometry x="-806" y="2975" width="211" height="36" as="geometry"/>
                </mxCell>
                <mxCell id="106" value="Importar libreria de reactiveFormsModule" style="rounded=1;whiteSpace=wrap;html=1;strokeColor=#FFFF00;strokeWidth=3;fillColor=none;fontSize=21;" vertex="1" parent="1">
                    <mxGeometry x="-382" y="2887" width="275" height="85" as="geometry"/>
                </mxCell>
                <mxCell id="113" style="edgeStyle=orthogonalEdgeStyle;html=1;entryX=0.5;entryY=0;entryDx=0;entryDy=0;strokeColor=#007FFF;strokeWidth=3;fontSize=21;" edge="1" parent="1" source="108" target="99">
                    <mxGeometry relative="1" as="geometry"/>
                </mxCell>
                <mxCell id="117" style="edgeStyle=orthogonalEdgeStyle;html=1;strokeColor=#FF0080;strokeWidth=4;fontSize=21;" edge="1" parent="1" source="108" target="116">
                    <mxGeometry relative="1" as="geometry"/>
                </mxCell>
                <mxCell id="108" value="" style="shape=image;verticalLabelPosition=bottom;labelBackgroundColor=default;verticalAlign=top;aspect=fixed;imageAspect=0;image=data:image/png,iVBORw0KGgoAAAANSUhEUgAAAYMAAAByCAYAAACx3b0aAAAAAXNSR0IArs4c6QAAAARnQU1BAACxjwv8YQUAAAAJcEhZcwAADsMAAA7DAcdvqGQAAABhaVRYdFNuaXBNZXRhZGF0YQAAAAAAeyJjbGlwUG9pbnRzIjpbeyJ4IjowLCJ5IjowfSx7IngiOjM4NywieSI6MH0seyJ4IjozODcsInkiOjExNH0seyJ4IjowLCJ5IjoxMTR9XX3oio+QAAAWPElEQVR4Xu3dfXAUZZ4H8O9ebYEkMMQYIBI1gZDcBrBAxSBSxIsKSoXaKoyrlhRQlqC7grruXWVZFP4A9djc3e65Bl2FLQssLEWyV2WZQkFlJYdA5CWUQLy8wKAGExjHMJAg1F3t/Z7uZ2ae7p6ZvMsEvp+qMdM9z3T3NMnv97yOP8nOzv47iIjoivYP+icREV3BmAyIiIjJgIiImAyIiEgwGRAREZMBERExGRARkWAyICIiJgMiImIyICIiwWRARERMBkRExGRARESCyYCIiMCvsP6xjV6FCY/eiqF6E22fo/bllbigN68oRQuQt/QWdFQ9jeYNeh9dJi7gow9aME49PZaJnCcGW3spebFlgIfw4uMbsH76NL3dz06uxJHVs7FXHnXH9D6iS2hQ2WpM2vxMtILSa/+Ht96RRKCSwL3ZTAQDBJMBddMsZG1+CZPKZ+ntZKOvz3jkleXr1+hHcdcPmDg8BZ9VMgkMJEwGdPlY+IwE/xJk+Ktw6IGnI48TkH1Fugz1v3H/C59+SgNHH4wZTEPZw7/E5GF6Ex2o/euvUH7a3po+/VUsmZgCfLMVD1e9be8Unv0jfoP19+WhXt7bXLgBJdfpgmcPYe1bf8AuvWmxyk6CvFs7garXVmKT3opc0xk5ds1oR9mOw3/Gol27o+ePI1yu+xYhZ0UpRuktoAl1q5cipLdMvnlbUZAef8zAen2s3lCOVWLvpvV6I8pd7lxNOY58uENvae6xigTXlZiqeeuAW7ZN74tDBeeSHL2h+NH0wB9xTm+ZYwZnJryE3HDR0H7ULdqIi3rTps+rt6QQmitWILBTb3bnusTQcuN8omPfWjSU19sb1nXLHar4DtfK9aVY112Fq9YvQZaKcpFz2OeEXP/pUatRMCUcAl2f09LZ9etrghz7/UzrvoR/OwMxxlRU1070fK7rF9br+Q1yH1swwjhvtJz7etxifYYuevwM/HMv4rN/G4GHP9b7KOn1Mhmo/vbZyDECvR1k4UgI80pUcDeSRDiYmwnCDPCR/fGOL3+eOxdieZ21y3t8R4Iy9heswltF2Y73hs8xssfB33BzBaaW5LqCtiSHefKnFS+Ix0kGg+/ZgmtP3w//Ab0jHMxdCcFOBM7A7pu3BUN23I/Wk3qHfi/MJKH2FX+FIzGuK7EuBl0V6Oe0oCFSJh8ZVjA1goyVDPIkLvqQEnQGWOfx4+xbn4nT4aShE0+swOmkj2UmHJ2UUsLHt46Vjo5QEN8uOoLhUj4lJHe3/k2pdsyXIBzUn0EfSx0jcjz9OWEcX1+bGbDDwdy83miCit4juxwcicMu576PtwAxju9IOnHukV02/Jn6AJPBgNSrbqLp0+9AjqqVhwO62LVrI2rPpmBy4UN6D7Cp6s/2vpm/wXQVqGdK0Fc1fuN9EWaCwNuoOtwBXDceEk/FQyiRRKBq7dFgro6/Vf58nOe0qRZDNCmh7qiUA0am98dgcTFGTXcnAmV9zETQmQsfGolAObkSX6sB57GTjSZ4MYaky49jtY4afmiTkQiUzHRpEbQj8IXRWlAD2T24ri7budFIBEo9AtXq7udg+EJ7j81MBMo2nN4nnyZnRrRrpyjTqiQEjpjH24Zmo/UwdIKKon6c6WRW0qAyOa4KtsZ71bWecJ9T3eX6qkhwTEEDTkRq3um4yux2crRk9Of05cFnlZHkMEOuTRKNWXO/WP4mmuWUGTMWYJDeZ1PBOxqUL+5pkOqMD4PH6B0S+K+VwwWqjMCtrz9lSolnEDhQZbQ+NhxBQH6kjOIYCnn1IhlMw/Rs+RP95qjRPaPsRvMZ+TF8tAT+sN0o334IHcMmYcnjqsYutfXtrq4fzX/MmSB2Ba2mBLJGyI+C8RJKgFNBdw3+bRz5Rn44zinOtlnBP+ptLH9tYe9bALGMLkZGGtBa138B9kKgXT8L24HzQfkxthRT5y2yd8XSEpTAkYqcR7dg1Gi971I4/p0ENi9nkJcA2Ko+lBEAd7ZY78soeQlZjkTSXfnw5UuQD30XTQSaJ+hKUP5+TzR4I9jieU9YR/0e52vW59THKroNV8spOwLO30SVNEL1kg181ziTQagBIaPryG3QbXmSmLxJz75nriTVheTYH34/qQ04k4IdbBUMKL1IBtlIU90w183GW49vcDwi/f2m03/AG6qWLzoOb4zW1rutA22qehPLsDQrWVwSuvZ9vkVv95oae9iKqcZjcmGqfi0qtGk2amskSaiEoMtNuKdYv6pZ01kr0WolhPDxKlTdt1+p7gxzVs8kox88IU/SkFbAA2vtmrQkBPt4q3s+KJwgsPdXrbmj1UgsDu4AntigDPWvloNc876qh2Ns5tL4/Ssn4P/gBG45lI2cB1OxTu+ngaEXyeAE2s7KD9WtI7Vtz8M96Fuwyu7r/+YEUib+Ei8W6P19ydMS+BHp2veQTL3dK3oQWi1I02sS1MMK+jGoLiW7TDn8UikbWljmTQiquyp8rKom2c5FQT8mBLtfW3V5RGf1HKrY7wrycYy5RpJGCBeO621LPQKLzOP4kLU0mhAuBiRTeLqgui9+0O4vQfyQoCXgZn9ONV5g3NfIwzkg/WP77ROSBO7Nxv5JkhTeacdivZ8Ghl4kg1jdQfE8hBeLsq3EsbxqK2olieQUrdLjAInNGyvvO9uAXaolYfX5pyA/393n/xAmSGuk48TumF1PidlJLSVNztMbJ7+SdgEwqiBBd01X3TzZmo3Uuqu7K5N3oPVlnRAycvW+GA4s1QkhE0P6pdtoFoariqq/ukfBye7/TxAk1XiETgjhbh27m0daDhMSrX/QXTM5Ezx96/G6X3rCcayde/C9atF4rkt3WfmPRPv+uyB2d1Dv9PUxf3soTeJCB4rv0jtoQOhFMgA21ehxgBL3wK1JzeyZLXW28ECzHj9ANkoSvk9Ia0J1OfkPhlsZ9oByysQFKFNjCNq8Evv4O3o0FqCT2nV3OI7Zfevxre6ucdbK1WyibiYIq5XhTCxq1pC3m0iO/eQqOJb26LGLcwEV7G1qZlLOzXpD8xWoZNGC8+ZAc5/x44JVUTeCrprJ0pVuIimnZtQ4Bkhln3vhmB1wjdZDZBC4xLMgblDZM9EWRLkkKNXNYpYpWoDsKT507IsOGPeY51h6QFmuyxzvGFQ2H1k+aTm97xwv6dSGKjSHVKuoD1cM6zGOrDnJupCQfgx9sM5AT//UW2Hh6Zv2tE81TuCcuhl7nYG5dkBxrlkI86wR8KxF0FNLEWONQkzmVFRbj9cZhKeXRjinfarAHKvvX3GsD3AdR73WiCXy3hbn+gDP+gFpUVTNds5EEp41Cz3+TiRjOqVbrOmgesuacbMRyJaEEP0uovB0U6uE5p1/r0SnSoYZUytN4WmielNxz8GP9Rkc0y2tKZjp+jp0Wf3ZnFM9Y98L99RNi57WGeW9fqtrLd2cmST053F/f1N0GqrBuP+xp4va15viuR+iC9fXZZxaOiAlzxfV6WRwyrEGgCiZJQiuVzImgwGpV91EREQejT+NtlxpwGAyIKK+9fFPcQoduL30ivxi9gGLyYCI+thg3H1vJhrHtljrDvyvMCkMBPyf2xAREVsGRETUi2Qwd+5cZGTEnGBIREQDDFsGRETEZEBEREwGREQkmAyIiIjJgIiImAyIiEgwGRAREZMBERExGRARkWAyICIiJgMiImIyICIiwWRARERMBkRExGRARESCyYCIiJgMiIiIyYCIiASTARERMRkQERGTARERCSYDIiJiMiAiIiYDIiISTAZERMRkQERETAZERCR+kp2d/Xf9vFvmzp2L6upqBAIBvSe53PT6cczJ1RvCXzkGb76iNy4bizH7r8sxZbjeRAj71kzC1u16kygJDS1/Cbk5ekMEqp5G8wa9EVcxXri7DOO/KcfcL3fofUq8/dRdl23L4OBjY7D6Lnms+Qxtel/yWIP5Hx/Hk88v1ts9tQ5b79Ofs7JR7yPqnkFlqzFp8zMYqrf727myp3HoAXlU7EeH3teZxwvLUDisCR94Av4OPHu0CUMLyvDqaL2LeoTdRH1t5iY8KYF+hfGY/4R+jZJAPjLWvyTBL8ajfJYuc2mpmrPjutYvwCD92pXozp9twf1Z7aj5aCle0/scTi7Fv9a1Y9zULXhhmN5H3cZk0Icynz+EFctuB3a/aNfW9ePw5O24SZehJOGvsmun5qNsm37xUpmFLAn+uTl+NJnXtREYUZavy1xpFuEXBak4V7cWz57Vu2L45Mu1qDmbisKpq3Cn3kfdk4RjBqoL5UFEuxQb8f5dM3FQb1lU7VuCbprejFkmTJdtiztm4D6ft99dBfnF007JOTYj0+yjP/MZ1t03Dy3quT6PSgQvP7fOetnNPo5Pb3m1Rd6rxwIC72D1u9c7Pmu0jMsT27GidGTSjBn45m1FASqxd8cNmPDorZEuiNaq2fAf0Bva4Hu2YHJhqt4CztWU48iHdneAdZz0z1H78kpcsPaYFiFnRSlSjfKdUy2DJcgKSjLoLPgXLUDe0luQojclg0iQ/iPO6S3Hsd7PdJTt2LcWDeX1+hh5+L6iGoOXliBDfr+aK1bghzm63zy0H3WLNuKiPLX70t3niM3d7x45n6a6fgryG+TYLRixWZ3XFi2nEk90v5d5HXbZFPXe1hJMKome2NPf3+k9M+iyHQnGDFSr4HcFLdjyX3FaBabRFdg+NReNe2fjVyf1PocZePaNX+Nm33G8V/ov6HSY4gqTXC0DFdBUYG6SIBipWe/HxNfX6ALR2rcK7uEy7zeNw5yPD2H2TF2oq/T50oya/LrdwJRlsbp21DmWY9zRcNl34B9+Oxbra8u8Y6IE7BAaP42dCJSW5yZF3yvbKrCHz6seniCf+6B81oloXKPLVDYibdrygdPtNLYUUx9Nx9erZ2OvPGpr2jGqZAtGGX27KthPLmxBnS6z9y+fA4VlmHBPsfX6hUA7kJaOwdZWbO2n+37g0OpH14EqXENv8ucgd/NqZBTpQmE5EiCtgK/LVvmRMkWSxEL9urh6wQxcqFiL5pBPnq9GLiSBSDn48uCzjjcLw1WM9R/pJBHo1kO6JJFwy6Fiv/zSLvF2c/luQcFmdd5Y17UNzfr9dftCsu1qjcQI4Oq9k0oQKafel1ESvR/dumddUoy7rpNKQnNt54lAOVkr1UL5S71ukb3tdkcR/tGqi43BjY9Ye8iQRMlAasN3j5PfNEkEjy3T+5RleDOyvQYzpWatgqhZyz/4mAquPkz5RTRpdC56PjMItzxXgX1n5O/77k3I1PvC1IykaNllONwkPzKul3KLcdN4+S07cxgH+7RWrlo8Rk3/lf1WEkkb3duB5xgW/wlVVVVxH3/q0Snb4f/LUkmRtgtfHJUAk4oh4Rs7ehWuH6taC9EyOLkSjZI0hhaWyr+ovOe01e7SijHqya2YOk//sY++QY7WjvNmkT4xCyOm+KxatFljPVdWhYBcVdYc99iCCqQrENipNzcckXISPEeFu3Z8SAlKK1q/nuILoinSKvFh8Bj5sXCCVUsPHEncWhlUNkPKyfl0a8KycyNOqICeI6+5gm6gKtF1dZNqxRhJ4uKeBnSEr7/b96wLhhVj/DD5K/hmvd7RmfWobZYfvhtidxV9uhP/Y/2iHccXb1h7yJA8yWDmP2HccPmzqjUTgcsTt1jdOW0n3bVvMzB3kT5f2yn1RtM6HDwqvzHDR+JavccWQqBBP9WsGUvhbqL+cOYUvtVPbZIYY7Ug+sK6p1BSUhL38VRPTtl2VP6t9PMYBt84HkPRhKCr28hOAJkYoloQLUEJPvq51KeHqP6ysZMlvIjM9J7PgFG1eXOQVh6RmrwOzB2t0W4X2zacUdk4PdM5oBv6LhqYLXat2+y2cQR5T/muyocvXz55jPc7A3OYH2f6si8k2OI8ryShBvmcVvDv7j3rimHq37cdwQRjBW4NIWlJyvvy9LZTNV54pBSl7CKKKXmSQd5Iq5vFHXC9EpTxBPDOeRNL2EhkdrfbibplcIYaJ8hFwQqp7ZuPEmOByMmvJBzo1sTNkzHq2Ofwt4WTg9KC8wkSTlwxBpCd/dYhXDiun7r5rrm0s3vcQdnQ41p/n0jie0adSp5k0HAKbVKzyYid0rvGU5PujVNo6XKXzzq0qPb38Im4aaAmkH7pJkrMGg+QlkFkvMDxuB+tRpBPHVGMwSMy0Vq3EueDqci40d5GWzDGwHI/63HNPoHj31lz7jMm9G56q7dmniT6455Rn0qeZLD9a2txWM7kBP3+Vp+5D+PucEemNZgolcm2o3/repfN9r+hUY0NeM6n+/+b9seenRTHwVo1dBXr2mJpQkDOnTbSqAFfav3RTdQJR3dQXE04b60azEWaVHrV+ECorglD8yUZqN3Br/o+GVh96z5cfZu7lm0P8nbU7+n7wLZzD75X/dk5ExJ0fdUjVK/GBrxlBt2Wh5QedgtdbA3Kf9NxVY8GebX+uGdnVRdhKtK7sXYgzyetTXlfvM6Dhf9RicrKSvw7B5A9kicZYBm275Zf9NwHXStz12B+ZDaRXSZt2lLHzKGbXldTQxvx393qS1+HrR9JAJfzmbNzMp9fiinDQ9j3boKxi1hemYn3myTAT1vuWVl80+vudQa6JZE7u/szoC4nByrhb0tFzqMVEkbi2SEtAVgDyjnQYxAHatGadisKClNxLuAe8+kL23B6XwgpU+Y7BmSHlqupmH58a4wF9J16BDaqFblq9o1rNXDRAmTpdQYXy6sl6EoZc+aQvJ5tDd5WeWYAdYnVKunhIG9EP9yzsztw9GyC2UEeizA5S36EvsIn9g6XhbhRz4odU/QsZthPSUu+dQbWfPlxekPxriHwzNc35/tb3GsHTK7jdfl86Nocfs/x7FlI3jUO7u8VkpaNe50B3J/LxbPewuC5Jz+umOsDRq+y1hy0u9YaWGXH6o2wY5XYu8meRRJeh+BZf2DNRPKuW0is6+sMrLn6EmQjjDUBNn0suPcbHHPpXeUXPmPN2Q845tnrMmZ29JzXu0bAeYzwtQddc/yN9QLu4KyvJcq7ziBDjbP0+p55rz3Kuyah++sMMlHz0f1xF6jNWLYRv75VjVVxrYHbZftFdUR0OViEV+eWYlxzJWbWJJpian9hXWGok3J3PIuNT92MVP97KP1npgJTEnUTERG5rce7de1AVmnCL6K782dLUDisHTV1idckLPy5JAK048B7TARuTAZElNQ++fJ+bGlG/C+iG12B3xWkonFv4u4hNXD88/QD+M/SBXjhU/0CRTAZEFHSe62m3PoiuvFZ9teURBXjhfG5OFdXHuf7iGzVaxagtLQUpY+8gGq9j5w4ZkBERGwZEBERkwEREYledRPV1NQgGFSrF4mIaCBjy4CIiHrfMmhuVl8gTkREAxlbBkRExGRARERMBkREJJgMiIiIyYCIiJgMiIhIMBkQERGTARERMRkQEZFgMiAiIiYDIiJiMiAiIsFkQERETAZERMRkQEREgsmAiIiYDIiIiMmAiIgEkwEREfX+/4EcDAb1HiIiGqjYMiAiot61DKqrqxEIBPQeIiIaqNgyICIiJgMiImIyICIiwWRARERMBkRExGRARESCyYCI6IoH/D/z+B79K0ptnQAAAABJRU5ErkJggg==;imageBorder=#33FF33;strokeWidth=4;" vertex="1" parent="1">
                    <mxGeometry x="-1083.9988235294118" y="3192.0011764705882" width="387" height="114" as="geometry"/>
                </mxCell>
                <mxCell id="110" value="Se hace llamado de la libreria FormControl y asigna como instancia de la clase del componente" style="rounded=1;whiteSpace=wrap;html=1;strokeColor=#FFFF00;strokeWidth=3;fillColor=none;fontSize=21;" vertex="1" parent="1">
                    <mxGeometry x="-1582" y="3064" width="345" height="136" as="geometry"/>
                </mxCell>
                <mxCell id="112" value="" style="rounded=0;whiteSpace=wrap;html=1;strokeWidth=3;fillColor=none;strokeColor=#FFFF00;" vertex="1" parent="1">
                    <mxGeometry x="-1056" y="3244" width="315" height="36" as="geometry"/>
                </mxCell>
                <mxCell id="111" style="edgeStyle=orthogonalEdgeStyle;html=1;entryX=1.001;entryY=0.4;entryDx=0;entryDy=0;entryPerimeter=0;strokeColor=#FFFF00;strokeWidth=3;fontSize=21;exitX=0;exitY=0.5;exitDx=0;exitDy=0;" edge="1" parent="1" source="112" target="110">
                    <mxGeometry relative="1" as="geometry"/>
                </mxCell>
                <mxCell id="114" value="Manera en la cual se puede acceder a todo lo del input por medio del html directamente" style="rounded=1;whiteSpace=wrap;html=1;strokeColor=#007FFF;strokeWidth=3;fillColor=none;fontSize=21;" vertex="1" parent="1">
                    <mxGeometry x="-1529" y="3570" width="330" height="136" as="geometry"/>
                </mxCell>
                <mxCell id="119" style="edgeStyle=orthogonalEdgeStyle;html=1;entryX=0.5;entryY=0;entryDx=0;entryDy=0;strokeColor=#FF0080;strokeWidth=4;fontSize=21;" edge="1" parent="1" source="116" target="118">
                    <mxGeometry relative="1" as="geometry"/>
                </mxCell>
                <mxCell id="116" value="" style="shape=image;verticalLabelPosition=bottom;labelBackgroundColor=default;verticalAlign=top;aspect=fixed;imageAspect=0;image=data:image/png,iVBORw0KGgoAAAANSUhEUgAAAiwAAACICAYAAADEZbA4AAAAAXNSR0IArs4c6QAAAARnQU1BAACxjwv8YQUAAAAJcEhZcwAADsMAAA7DAcdvqGQAAABhaVRYdFNuaXBNZXRhZGF0YQAAAAAAeyJjbGlwUG9pbnRzIjpbeyJ4IjowLCJ5IjowfSx7IngiOjU1NiwieSI6MH0seyJ4Ijo1NTYsInkiOjEzNn0seyJ4IjowLCJ5IjoxMzZ9XX2pXB+hAAAiFElEQVR4Xu3dC3BV1b0/8C9qLTYPIkaIEUhiDv9KipXwCBe8XhpCpmRqr6MhMgNjO50SUISOnX8V5OEwvAraO+1cKDSETufqwAxCZOzfTugkMXVa4U8Ug700eMuJhGdCRMyLChTlrrX32ufs13nmJDk5+X5mDoe9zs5e++zknP3ba/3W2sOysrJuIYCcnBy0trbi2rVrqoSIiIio/92mnomIiIjiFgMWIiIiinsMWIiIiCjuMWAhIiKiuMeAhYiIiOIeAxYiIiKKewxYiIiIKO4xYCEiIqK4x4CFiIiI4h4DFiIiIop7DFgoDIXYNKcaBx8sVMuGQOW9pW+35gnxmLMes1UpERENXQxYzDLX41trq5E9WS3HkdSF1Zi+fD2+rpb705KCF1GQ0oxDH9erEkM9Vjc1I3nCi9iZqYpiQKsP7+PnB0tQXPsy3lHlREQ0dDFgoaBmP3gA8+6/iobaZahQZRYXl+HnJ6/CM/0ANqWosl5ZhEn3A94mBipEROTHgIWCWISyCUnoOflrrO5WRS7e+fjXaOhOQsH0GHTfpIxDhvovERGRYVhWVtYt9X+HnJwctLa24tq1a6okVhYhe20pRqsloBknNyxDl1rSyO6ZH09Dslp0rqNvA38oQeu9BzCpIEmVu2zLUd9VtPx2Hi5d1Jdkd8uEB/T/u7kk6mj5UP5P305Swyv426elmP69XO11yb8O8PXvyv1pc91f7Wf/aO5aKcTo5S8iO00tmvfNcQxsOt7H8W0v47paDH3MVF1XqnC0fpxl3R7HfumtKy9NaMOBgwFaV8wyt6Nmei68R0vwrDquUUlZj4NzpqGtt9shIqKE0v8By+Tt+on+E3HS3LNbFYqT+UKgRS3rJ/wkSxCgBxXmQMMUhPi2pU7IMJ/I1Xr2+paPQ6v5ZC+pE/5VU71WpjpNwYC+v2L/1b6FHbAYAYYl8BDvYWEhOvZY9017/yNtAYpJeMfMHByZytXvxPyzct1Nc15EQVcVihuM4xbMIux8ohSeC+GuHwADFiIicnGbeu4n4oT5iD1YkXb7ghV54rtPnHjlFb85aOjaU4VLSEJ24SJVosiTve9n69Hx96tA2kh/cmrmOPFTwKWTtvoCnPjDIus0BSPX/7sJPaKWuyLsy0gttAcrUj0u2YKV0CI8ZlqwZQQxwofHxXpA0r2m0T4phchLAbznww0+duP4BfGUOo6jeoiIKOb6N2DJLES6uLq3Bg82kydpLRhXP7WPSNmNK5+Ip5HjLCNlev5eH/zkfvEsRAiD0d+L4eifK2etdV58GX/bEKhVJpBFGPlAGPsfjgiPGTqu2OoUAZzYf0uXUMpIJIsjdyVI7ordqS5xpMXPjVfL0Zh9f56otxnH2bpCREQm/RuwZOgnwS/a1HJAQdYxt56ERZ6MX0FLhx60TF8rHwcwOobDcKOiWn6cQUa0YnnM+p/Ml5HzrizHr1EcTs4MERENKf0bsLRdiarrxMLROhCOelzaVoKjG8Tjt+9r+5D94wEOWlTLj6Ubpq9Edcz61zsfzxOBSgm24TkRuGzHElVOREQk9W/AYnTPTLDnVJho+RRJSH/IfiKPUReK7L5RQYsjcOrLIEJ12/g144sOIPn/FIbV+nH9stizQC0lfXHMuvXgcmQEc6uMT03Sfu6UWo7GOxdkPlAuJg10CxgREcWV/g1YsButDeLE+0ApvvVd88l1EbIXGkGMvk5ywXOWFpDUhXJ0TjPO2YbehjR5u60u4OsPyTwJty4UFUQUlCJVlUTj+qdyw7kYaeTMGCOjLOpx6b1mEYRMwyTfe5fkKCHnjLbGNsfa3osuxsdM6q5HUzfgGRMkuLTQJ3xD11lO+EZERDE3MPOwOE7gzrlTjGG6Po7RNC7DhAW3IcWObbnU52ceuqyzz8NiHSLtzlqnrK8Kdy1/Eel/t8134pg7xTpHjFmoYxL6mLkN+w4s8nlYMtBQOy/oJHMhcVgzERG5GKCJ42hwCHdulUjnbAmCAQsREbno5y4hGlx2Y//Jq8D9pUFvbjj7wedQkHIVDcGGq4er+ywCDXYiIqKhiwELBSVH7xy4gMA3N8zcjpcmJMF7tJddQT7N2twvnrwY3JeIiIgSBgMWCqmi4RXt5oZ599sTfguxKS8XPSdfiWH3TT1W14r6MA0vPVGNmjkMXIiIiDksRERENAiwhYWIiIjiXr8FLLK1Zvjw4WqJiIiIKHxsYSEiIqK4x4CFiIiI4h4DFiIiIop7/TZKaKBGHLlN1R+UcdsAx7T2cW5pDdaWetSC0LwPGxavVAuJI3/XaTxmuqtDS1UOXt+hFgbSI3sxfslM+G6M0H0YTc8twA21OHC2Ysxr83FX4yac+mWlKqOYKF6At1bmo63qBSyJh79BN0uXoa40C+hsxOYn96JOFWv6ev+n1OLa94E7183psyvjuP0+GHDXUXuoDdoZ4ZMMZC8N5xa78W/Qt7DIgGT62u29ullhQthRjA1FOeKxGR90qrI4Ir9Y1r65B/YbZEeqcbF8j+Kx5TA6VFlceG8BTv0gG8fFw3tWlRENVZl78c/ve3D70X19epKJ2++DAfUl9u4TwYoMVOZmJUywIrFLyO7DZTi6oQRHB1PrygDTgpE60yMGgQmF786f/hWTXmsxPWpNN9OkIW3HdhQVvYAie+tKn9qKm4tn4svmffhaNVv1+l3RNUwc8Q0crkqcQMXAgIV6YQueFgHKY7levK217qjHTqB4Y7lah/pOOdJ/3YK8fOB8hd66oz+OIW3jVrUOUf+6VVKCm/DiztdXqBIKpE96CDw3E7bHYZDmsCxC9tpSjFZLTs2+nBV/DstxjDT9TE/DK/jbH+vVkmDkrhg+qcLRPe4380tdWI0JD6gFwbGtCGVs/AjlM/x/Yh1HNmPbGuuVib2v1m0dXTlK3lyFqZcD57DY63Pku2j5MKPwwZaH0VZmrlcGJsVoVEv6PlnLLIr3YPnKmUhTiw6dh1H55EL9Zodh1umjtt0RbZ/1glpMmuvB5UPZOL9XlSnJG1vgGeeF9wdz0GMpUwvS2X04vsb9C1lb9273HBbX11T+yxe2fZEtJ3n5/t/TVVseiv66DFa+jcvvqUIHfw7LGSw3bc/6/nQyAFqNMaZ7Rtnr1PYf4r1Xj7Xk7AQ+jmrBzHLs7HV2ub8fe46Q6/6HqwgVdXP1/n1NN45uWY9VNWpRvZ5xpAKPr/GqMlG68WWsmnEF+4u24zeywJQD0jjpVZQZf7NB8kX8LV9n/Nux8GDzm0swfYRatO+blpMyUis7W2aq0749I3fF0HwIRYttbSyR7H+o/fLZipvr5uPW0U0urSvquwmmz71BfZ5h/l6z5+UF+i6Qgnwf6N937baflRdb85Hm+B7Vy7PVUtA6Y8I4l11Fy2/n4VIsbnGypBMtT9zA4VfvxYL+a1brF4O0hWU3WmS3jXgcb7gqlmWAoi/rD3uCbS4miD8K/EG9/odmJBc8h9HmOxAbXUEbXkFLkM5QPVix1ncu3batsMkP8GnxYYI4UftbKPbjKZQUq1WMVox08SE3WjC2HAZmrMLaXVvUOuEy6pMfXqO+fWjJne/SjZOKqStFveLkpK8nc2M8eMy33hZMlF9wzccCf5hrFmKbquftZrEsAxRfveJh/9IKWWcM7T2Gy+IpPc/eErEVaeIke7Vxn+9kKAODtCZTC0bFYVwdNx+T+rAVQ57s8/LbxUnZXyfyV2P8T42Wq3KkekTw0X0CXQGDFb8k8bN5nhNo0ra3Cee7PfDY9j9543JxXFR98nHIq/2cv05Fvvclo9Cq1mtq7EL63L8i/RH1uqAHKzKo8G9LkgGQP1iRwZQIVj4XAYxvW8CYJdZtGcEK5M8a26tox31RHX8VrMgTuOwq0R7v4Z5nF4hXotGNjDniZA9je4fgHZGPVbtMW1OBAUQA5KtzyxWUmNeR5Hp1IigQn6jNvn0TUWCZfd9SMH2luc4KHO3MQtmbpvWMriDtNVXmKoz9146Z2K/L/mO2+QjEPryMzb7vKWXKFNwU3763fWQPVqRKNDaJb+YRE5Fv+7mMWRPFhY0XfzGCBxmATDrm/64wvgvqaiCOZN+Qdaogxqj37eY+rlM7l8lzThKyf1yN7MmqmFwNmS6hSyJYaflQLXx4HJfEtVr6Q/ab+YVSiLtGiqdPjlsCoq49UUbGS5/C1BFdWqtCtelKpW1NsW85Y2OJiPZFlG8+uYtAYP8RsQe5JabAJgy++sxXDCvxepU4mYyYieKlqkiRrTj+lhfjy2YU7pOLS6doVyEtx2M7EilonTG1Ah0yOXbcFGu+x4IpSBe/3c8b/F+4N375bWvrwXsL0Or2s7EiTtD3iaDp8iFTC4Ko84wIDJLy5+t1PlKIu1NEAOCtD28kkmXUUiW6vOK42va/Z42tZWPvPhHYiGDHU4g7VZFOtoL49+1GwwlxfZiK4b4LemfQ57atO39aIo61CGpMLVU3frlNrJeKMSWmYCRrlPi0Wn8nWpJzgBauoIpHa8Gv97j50rMOS6LO8UhBsjyR+1ov6vDGEfFGcx/xn8zHjxTHuRt/e9ffWoOavXjc1uLxTFk+kh2tG16sWuzctx4Z/Ph+3ou6JlHniJEYr0rCF3r/izY+Ao9swTHtb92avSIQEoFTmTWU+irPIz7EJ3BbgO/DtndPoEP8rXhmmYPgcuTnieDbfPEjL3YsLcSVqK6Vx8+DibbvqVjJL5uJNHFRtd/U4tK4WFzQiTr/NaIu7kKMXl6N6WsDPJavhzW7pB6XtpXg5CfA6O9V41vfjfS8NHQMkYClGVeMYKVX6vHFFfH0QCmmL1ykF/VC/iTx4e48gUZHs6pBfZA729GqSgzGBz89gm8orT60o81e345j4kMJpGVaP5QdF61XSW1rHhZXHX3ZPNq/dfZUHxYnWg/SFqgCIVl+4YbRanHjM3PIGlt3FkwUJ2gvOmxdLDcutYt/R2G4ufUhTGEHNhaVuPa5+q9ZqOPzyFjcpf7r8Pk5tR+qhejsMVu3jqrz7rH+IOlMuxYQOVpeolFzSQv8PaWvoiJGJz5r8CNO5hfll0QK7jE+m6euiPcoW0VcWiR8ipCfK/4mmxrCCpzaLpqCH6FuzXoUuXYxhRZ8/z0oyhORcfNJ27a9OKs1UY42tf6U49Y94umzcximFziJQOQvzeK7Ju87/lbT4u/AMyKMi59T7X04EkhvMe5o+pOt1bcZlzvF/o7y9b2FQQ9AjBZ4xyPAgI6uPXqPQXLBi706v2x9WBylzm+gPpw/pEFmyLSwxIrxR6UFLSpiji4iLkdGuni6fM72AXERZB17kBGSS/BjiOxDmQDeq8fn4mLS3y2ktwxcFlfv1pO77Lowj8KR3TVGLkjs3XmP3LYHHludMuemT8muF1udrjkooagWKF9rkLRgvpancrnJaBXxYLjMW5HdS6HqlK0pP9iHy1rQYqwX7UioOixR3SQyaKmrk49ggUQUtADFRLamyK4WLWgx6lyGZ9TLGtXyYw9EBoRl/7Nwj8xbyZ2r9tv/8OfPRKbxuGzR9XcLad1BnYdRY8s9cYw+DJYP11vFY7Vtp8mudnOddasw1Ze3048emBtxmsHWHWfQcugMpnyUhez5SSL0TzwMWKJw/Y/zVLSs57vIiDjyoKUSbdoVythe5WfYWyR6o6NdJpqESV3tZE+KNI8mnti6RrTuIHvLhp60mi67VIz8CS3Xou9aWPTWG1P+h+Whum3eO4cvxJOzuyZKRlKrTIg11RfdnDLlGH63fDYFXY4EZy+uiWBRS8A11ed7OBKWV+C88ZqWDyO3HW3Q4sWqJ/VcjKItjWG0fkRIdQF9dkota2SgpOqsOiOWs1BmDlpUy09GZh8HpeGw7P8ZfCZzYCw5P6ZHNF1pWouu0S2ktyLbWzb0hH7ZfW3ksIhHX861UnNO27bWJW3UZ34EGMDgLtIuIZ3Mj5xUkKQN4ji6IfI0gxVLRaAyNwvHHhaBy76r4sgmnkEfsFz/VPuY466okl57Szb9qaAl3eVyY9ZqvFZVhaqqX+CHqsistV2cmFwS0PxUDkfuFEfSl5GkdiKCETL2KxsfLR+lC953Iwh+av4Er/wic9k3N/p77YtclGAexerfyeNfhV/8SBXZ3Phltbhy17uFtO4gexeFFsS4tbrEjt4F5Bde14/KwUmZiNTedpMI+j504Xx1FHkhdlprisxzMQUg4mEdReTS9ROuvXNU0OJ2jEL/zi1k64cKWnxdOK5U10gYnpkkk3mu4Gygrl6ZEKsFLSMxzvdZ1AOD5LwCW4Jt/7Puv1vXTyCVGPaZeLpnLAIOPdWsRM2RLr1bSOsOsn/3GAn91ZbcvphSOXh+0XT9BBJpl5Ae4MiRpzLXsjcjTqUVH6WJ79p/oHCg/5D6wOBvYWmTzZdJyC7sfU5JaIuQbY+OMwuRLv4+ei47WycenfFNdSLKwUMuX55ta6q1K42pK61Z6Bkba3zJtPo6HjxmHhFUvAdlM8RVyZE3Isvt2PEGPugU9T1rHnWzBU/LoYMRfzlUonqnvOJxyaIX+/e0LUmt7aI8CUeavNZLs/4N31Q9NzkT3UJGST/xp+fVIm2cywlby58wdxuJk4o2gie6LiGt9cQUZNiHLmu0BFXZ/RG8BaFnjdFNYs/t2IoxEY6g0YOkVNxdYPx+9DleouoSUjkn/iRcd1oOUcpM5IXYV3mMxpjyjCQtuEQ7rtlzaUL9zpcuw1sbra0YRbM8thYRe/BgH9IbhNi+7CrxVvnzSeRwaHu+jDOo8WJVrQhiHCN0RN27oh3BFAWX/f/NfhHQOfbL3W1NIpBMm4ivQlxAajl44uKpuExceDm+e/TgwXIxJIc4R9klZHz3+JJ1HcOlJZXUmzsfy/vzO0ob1vwistPksGbTwBBylRj3ErLPoaINc7bPw2Ie6qyPfU8yzZ9in1vFzDLCKHM9vvXjaZYTieV1M9nC8pPJImg5jd+X/gz/pYqt1NwEpi9D5xwr9rkBnPfMsM/TYmZdN4z61Ac6vPtyOLdnmV/FxDH/i2MellB1Oo+Dn9t8CfJq+3lMFlWefrsUP/udKrZTc7IEvP+P8boih+bqc5rIYcf6aBnXwENxncvECAS0Os9h1GvzAdtcJq7zmFjmMNE51zPPUeKfh8U5h4t///1l/vcgu3A68sS2TfPGaHWFMY9MwOPhOMaqy00tGezzujjeY6DfVRi/c30+FXNriducKNa5WuSonMcvzkVdKUzrugUy7vOTPLPLlvPhOteJ4JivxW0eliwRUAS//4+jPhP/z4a///bjYXDuR7B5WMz83xvun3nbZ11+V+wEyixzrYT/fWD97pGvvYEMUb+nyfbdp+ZzsQZGzpGcsRLxve7CkcDzsCT8zQ+JqH8ZwYpjMjlznkw0Q5JpULhV8ldcnw58bde3cXssJkKjyHDiOCKi8OijnJzDso1EYUpsw6qrcQdS8c+n9obIZaE+4b0jdq01cYYBCxHFlD7KyTq/jZS8Ue/68Q9tpsS0AnfsOozb02bi+tOR5VJRDNTdgXb8AzNLE+/2vewSIqKYc89h6c39f2jQmVKLa98Xfwvr5vDKuN9dR+2hNj3n6JMMZC9NjDs3M2AhIiKiuMfAl4iIiOIeAxYiIiKKe4MyYJHdS8OHD1dLRERElOjYwkJERERxjwELERERxT0GLERERBT3BuWwZg6RdmG/oVfzvghviR4FdV8TH3kL+sX9PBd05nbUTAcOHFyGClUUa/b7NIV3j6Ve6of3RUQ0mLCFJVHsKMaGohzx2IwP5J1O+4O8TX7RC+JRgaP9VadZynocnJ6LnpNVfXpSb1wsj6t4bJF3p+4nF6vQ0J2LeXPWY7YqIiIayhiw0CC1CDvnTEPyhSo88bF+x+3EUo/VtVXwpkzDSwWLVBkR0dDFgIUGpdkPylvdN+NAw25Vkoh249mjzcD9pdiZqYqIiIYoBiw2GRs/wtq6077H8o3l6hU/mdMQbB1tG2/uQQa24Okg60n2+tbu2qJesQpVZ0RkvotpW4HqjKVndr2Kujr/462NpnwbQ/ECvGVax/94GZuL1TqaRSibkBSgK6gcJW+K96Qdf5viPVhuP3b2Y1FXg3z1UiT036P9Z/Xfv/N3Zf27CFqn1jUEePKCdA3NWo3XqqpQ9R8/VAVERImHAYuPfqIrnwF8sEXlLIjHfjyFEt/JUj/RPJZ+GJXqdZnXgBmrnCf9ETNRXleCy8a2qrxIE+s9vVS9LsiTnL2+yvYSyzoR1RkG7cRaOspU5z605M7vw6ClCBUi6ChLb8RmLd9FPLY0iv1fgrpdRWodQQYrK8Vp+0iFLS/mDPYXrceqGm0tXeYkeHAVTRfcuoIq0djUJY7/RORbghzx3mdNRBq8+MuaSr1ABjCTjvmOvZ7/48FjUQYtYdGCpvlIO7LZV+/bzcHqrEfd+atASh6KUlSRzaMzvokk+Z/sh8CQhYgSFQMWw9KnMHVElziRP4xq08mxbU2xbzljYwmyxQnv7ScXok0vAmoWYv8RcYLMLTEFNrqWKtO2dhxDi3hKy/Rfbd83KhXoPIFGS30PW0agRFpncFtQPCMVHUe2m97jSrwugqnItxWeoo2PiOBCBB1P7oVv/FDNXvznkW5R5yO+lpOiWR4ki/Wq14h90XixqvaMeM5CviWAA5aMyQW6m1AnNuGm7d0T6EAqPLPMLRvlyM8Tx7v5GES4pBPHcZtlJFUlqmtl/R5MtNUZK/llM5HWeRj7jaBJaFwsgkZR578GaDV750ITekRIMjJAwPLnI/8jwjeh5b/xX1oJEVHiYcCi5E/yOIIHK3XC62xHqyoxGCfI9PGqQOPFiRBDX1vbZUvATJS7dV9oIq0zhKVTRPDTBe+7/pOl5lR75NsKiwdFeeIs23kFp1SJoe5drzgJp+AeVef4UQHOxujGZ5YfLsQ4cUjQdRbv6AVOIhD5S7MIDvO+4z+uxd+BZ4Q4px8PMdRbOxZ9ZQsmiliro+lP/uBT04zLnWJ/R5nGTpt1n9XWz0gt1Jft3t2EH5SWovT/MlwhosTFgEVTjox08XT5nO1E4iLIOubWk3DI1hTZVaR3H6l8BreumRjVmZE5SvybiqkrzfkT4rFSXPXrq/SNy5f8rSs2GZl6Lstv9jeKACYLJb7cFg82z8kSwY4XdQGDyMAaj8vj6u8W0rqDOg+jxhZE2nOD+vRYFI/Vti27Bi111q3CVBFMERFRYAxYNJVouyye0scGaOkIT8dFW8tFOHzzp8hcBrEcYT5JJHW2XWwX/8puLyNnw/ro88nQXLRdVF1A40ciWTwly9wWLdF2CaajEZvNXUmR0LrgjG4hvaXK3rKhTwhnOx59OddKzTlt2x2m/BXLo68n+iMiGsQYsCh694wzUdNPJXPmTnEkRxrJnKG6gEKRE5RpQYsvcIpxnZF2/RijT6p+EWUypxd1TTJXZQKeUSUGI2elUdt/1ZoiZ8o1EnPlwzVYqcdZcUiQOi7EhGorUXOkS+8W0rqD7F1hevcMmqstOUsxpXXBmYXo+gkkZZz299DWFWi+mR/iF736PRERxT8GLErbmmrtinzqSutojYyNNb5kVH0dDx4zt4AU70GZlsj6hj+ZMyxyVJJzGKx2EjV1AcW0TpXbkV36UVgJtr7RJ8jBQz/S/hOxujXvibAlC2W2EUE/mZGCniOH8ButwIuzWgvXaJjWCqjivHgTQUbNGLQ8HxGEFpeJ4M4RmOjBgyUYlEOco+wS0luvTMm69lslaFRSb+78iIalz74/TwR3V3ElQJIxfvSQ+A1JOSha+aj2PyKiRMN7CVnIIMKaTyCb77eZRnTow4znW66c7feW0Ycrt+PtomJTQKH/nBzO6t+ec1vO+qTQddrvd2Pmvn8yc9Wk8zAqzSORJNnC8pPJImg5jd+X/swxAkXOrVIWoE5v1QtY4qtTDm2WE735WV+XnOsYnOsuws4nSpFx8pUQs9z6f5/u9/+xHVd5DHYCZSJo6fCt7zz2fl7L79h6XOVrbyBD1O9psv1O5dBmR2DkHKGmK8SmOS+ioKsKxQEnyXsUq3/3PCbLqlt+z+RbIkpIDFgoDqhgpdOZs6IHRd04usU6F8vsBw/gpQlAQ+08rA7U8pAItJsgZoR8n4+ufA3PTxOh5dul+NnvVCERUQJhlxANvOLRWo5GT1ODI2flVLv7Wfqdjw/BiyQUTE/kmwMuws7pucCFQyGCsh/icRGsoOtDvMVghYgSFAMWGng1l7SuqOS8AmsOi8p1cR/avBvP1r6PnoS9OaDsCiqFp/t9/DxoV5BMtv13jHr/Vyj90Sb8Wb1CRJRo2CVEccI9h6XnSAUe981+60LrMgEOHFzmcl+hQSxR3xcRUZQYsBAREVHcY5cQERERxT0GLERERBT3BmXAcvr0aXYHERERDSFsYSEiIqK4x4CFiIiI4h4DFiIiIop7gzpgKV/3KVoOnRGPT7E32F3zptTi2rpafKUWiYiIaHAZ1AFL5bp7kT03C5v+PzDzhSBBy7F9+FqHBzee34uAk84QERFR3EqILqHKdanw4h8Y5XarX00lbv/VPtyRNhPXn96qyoiIiGiwSKgcllH3fan+52YF7vh/XiB3Pm5OUUVEREQ0KAytpFutawi4+Si7hoiIiAaToRWwoBK3/U8XkDYRX2WqIiIiIop7CRKw3IH2TvXfEIZ9dAK3IxW37lMFREREFPcSJGC5Hec+A1L/pQchU2ovnsMw8XRrVLm+TERERHEvYbqEVizNQvard6BEm5elM3TgQkRERINGwgQsW3eIQGUxsG2uCFzmjsAKVU5ERESDX4IELNcx5QGg6+RwVKqSgDLHaiOEhrWHXJOIiIjiRMK0sITr1sMT8SW6MKxVFRAREVHcG2IBSzm++mYq0FyN2y+qIiIiIop7QytgmTIf/0zrwtfqmOFCREQ0mAyhgGUrbn7fw9YVIiKiQSghApbydV3w4Bs48efbVYldOb58fj5udhzG119n6woREdFgM6gDlvJ1n6Ll0Bms/pd/wHvwXiyoUy/YaV1BXtz5qwXapHFEREQ0uAzLysoKeB/AnJwctLa24tq1a6okerHcFhEREQ0tQ2yUEBEREQ1GDFiIiIgo7vVbwHL69Gl2BxEREVFU2MJCREREcY8BCxEREcU9BixEREQU9/o9YFlSUI2aJ+RjO5aoMiIiIqJg+j1gqWgoQfHBEhy4kIt5DFqIiIgoDAPWJVRx8n30IAPjUlQBERERUQADnMOShJEMWIiIiCgEJt0SERFR3GPAQkRERHFv4AKW7rNoU/8lIiIiCmYAW1iacaUb8OStx2xVQkRERORmWFZW1i31f4ecnBy0trb27T2AMrejZnou0P0+fl77Mt5RxURERESGAWxhKcSmOdWoGXNcm5elmMEKERERBTBwAUtKIfJSAO/53aqAiIiIyB1HCREREVHcY8BCREREcY8BCxEREcU9BixEREQU9wYsYFkyYRqS0YzjF1UBERERUQD9HrAsKahGzRPVmHf/VTTULkOFKiciIiIKZOAnjiMiIiIKgTksREREFPcYsBAREVHcY8BCREREcY8BCxEREcU9BixEREQU9xiwEBERUdxjwEJERERxjwELERERxT0GLERERBT3GLAQERFR3GPAQkRERHGPAQsRERHFOeB/AYv08C2wgpvuAAAAAElFTkSuQmCC;imageBorder=#FF0080;strokeWidth=5;" vertex="1" parent="1">
                    <mxGeometry x="-375.9966666666665" y="3273.0033333333336" width="556" height="136" as="geometry"/>
                </mxCell>
                <mxCell id="118" value="Manera en la cual se puede acceder a todo lo del input por medio del TS del componente" style="rounded=1;whiteSpace=wrap;html=1;strokeColor=#FF0080;strokeWidth=3;fillColor=none;fontSize=21;" vertex="1" parent="1">
                    <mxGeometry x="-143" y="3552" width="330" height="136" as="geometry"/>
                </mxCell>
            </root>
        </mxGraphModel>
    </diagram>
</mxfile>